<?xml version="1.0" encoding="utf-8"?>
<!-- Generator: Adobe Illustrator 25.2.1, SVG Export Plug-In . SVG Version: 6.00 Build 0)  -->
<svg version="1.1" id="Layer_1" xmlns="http://www.w3.org/2000/svg" xmlns:xlink="http://www.w3.org/1999/xlink" x="0px" y="0px"
	 viewBox="0 0 800 431" style="enable-background:new 0 0 800 431;" xml:space="preserve">
<style type="text/css">
	.st0{fill:#00ACD7;}
</style>
<g>
	<path class="st0" d="M457.1,86.8l1.8,1.2c20.6,13.6,35.4,32.3,45.2,54.9c2.3,3.5,0.8,5.5-3.9,6.6l-7.9,2
		c-17.9,4.6-32.1,8.5-49.7,13.1l-10.1,2.6c-3.6,0.9-4.6,0.5-8.5-3.9l-0.5-0.6c-5.5-6.2-9.6-10.4-16.9-14.1l-1.4-0.7
		c-24.5-12.1-48.3-8.6-70.5,5.8c-26.5,17.1-40.1,42.5-39.7,74c0.4,31.2,21.8,56.9,52.6,61.2c26.5,3.5,48.7-5.8,66.2-25.7
		c3.5-4.3,6.6-9,10.5-14.4H349c-8.2,0-10.1-5.1-7.4-11.7l1.4-3.2c5-11.6,12.8-28.4,17.8-38l1.1-2.1c1.3-2.3,4.1-5.5,9.3-5.5h125.3
		c5.6-17.8,14.8-34.7,26.9-50.6c28.4-37.4,62.7-56.9,109.1-65c39.7-7,77.1-3.1,111,19.9c30.8,21,49.9,49.5,54.9,86.9
		c6.6,52.6-8.6,95.4-44.8,132c-25.7,26.1-57.3,42.5-93.5,49.9c-10.5,1.9-21,2.3-31.2,3.5c-35.4-0.8-67.8-10.9-95-34.3
		c-19.2-16.6-32.4-37-39-60.7c-4.6,9.2-10,18-16.4,26.4c-28,37-64.7,60-111,66.2c-38.2,5.1-73.6-2.3-104.8-25.7
		c-28.8-21.8-45.2-50.6-49.5-86.5c-5.1-42.5,7.4-80.6,33.1-114.1C274.2,100,310.8,77,355.6,68.9C391.6,62.4,426,66.4,457.1,86.8
		L457.1,86.8z M642.4,142.6l-1.2,0.3c-36.3,8.1-59.7,31.1-68.2,67.7c-7,30.4,7.8,61.2,35.8,73.6c21.4,9.3,42.8,8.2,63.5-2.3
		c30.8-16,47.5-40.9,49.5-74.4c-0.4-5.1-0.4-9-1.2-12.9C713.7,156.5,678.9,134.8,642.4,142.6L642.4,142.6z M181.9,213.8
		c1.6,0,2.3,1.2,2.3,2.7l-0.8,9.3c0,1.6-1.6,2.7-2.7,2.7l-84.9-0.4c-1.6,0-1.9-1.2-1.2-2.3l5.5-9.7c0.8-1.2,2.3-2.3,3.9-2.3H181.9z
		 M190.5,177.9c1.6,0,2.3,1.2,1.9,2.3l-3.1,9.3c-0.4,1.6-1.9,2.3-3.5,2.3L1.6,192.3c-1.6,0-1.9-0.8-1.2-1.9l8.2-10.5
		c0.8-1.2,2.7-1.9,4.3-1.9h177.6V177.9z M210.7,142.1c1.6,0,1.9,1.2,1.2,2.3l-6.6,10.1c-0.8,1.2-2.7,2.3-3.9,2.3l-141-0.4
		c-1.6,0-1.9-0.8-1.2-1.9l8.2-10.5c0.8-1.2,2.7-1.9,4.3-1.9H210.7z"/>
</g>
</svg>
