<?xml version="1.0" encoding="utf-8"?>
<!-- Generator: Adobe Illustrator 25.2.1, SVG Export Plug-In . SVG Version: 6.00 Build 0)  -->
<svg version="1.1" id="图层_1" xmlns="http://www.w3.org/2000/svg" xmlns:xlink="http://www.w3.org/1999/xlink" x="0px" y="0px"
	 viewBox="0 0 469.14 146.61" style="enable-background:new 0 0 469.14 146.61;" xml:space="preserve">
<style type="text/css">
	.st0{fill-rule:evenodd;clip-rule:evenodd;fill:#0066B1;}
	.st1{fill:none;stroke:#0064AF;stroke-width:2.0443;stroke-miterlimit:22.9256;}
	.st2{fill:#FFFFFF;}
	.st3{fill:#0066B1;}
	.st4{fill:none;stroke:#0066B1;stroke-width:1.1073;stroke-miterlimit:22.9256;}
	.st5{fill:none;stroke:#0066B1;stroke-width:1.1116;stroke-miterlimit:22.9256;}
	.st6{fill:none;stroke:#0066B1;stroke-width:1.1083;stroke-miterlimit:22.9256;}
	.st7{fill:none;stroke:#0066B1;stroke-width:1.1106;stroke-miterlimit:22.9256;}
	.st8{fill-rule:evenodd;clip-rule:evenodd;fill:#646160;}
	.st9{fill-rule:evenodd;clip-rule:evenodd;fill:#E60A1A;}
</style>
<g>
	<path class="st0" d="M43.09,86.86h74.01c-1.51,3.05-3.39,5.67-5.5,8.02H48.54C46.16,92.5,44.36,89.82,43.09,86.86"/>
	<path class="st1" d="M79.89,23.37c37.77,0,68.4,23.16,68.4,51.73c0,28.57-30.63,51.73-68.4,51.73c-37.77,0-68.4-23.16-68.4-51.73
		C11.49,46.54,42.12,23.37,79.89,23.37z"/>
	<polyline class="st0" points="55.24,78.95 58.35,68.39 62.55,68.39 60.73,74.89 62.13,74.89 64.07,68.39 68.28,68.39 65.29,78.95 
		61,78.95 61.74,76.15 60.33,76.15 59.57,78.95 55.24,78.95 	"/>
	<polyline class="st0" points="69.78,68.43 66.6,79.05 76.61,79.05 79.54,68.43 75.43,68.43 72.66,77.73 71.21,77.73 73.87,68.43 
		69.78,68.43 	"/>
	<path class="st0" d="M50.17,82.31l34.67,0.08c2.37-1.67,4.79-5.27,4.16-7.79c-0.84-1.63-2.42-2.64-5.27-4.93
		c-0.99-1.11-2.04-2.16-3.12-3.18c-2.98-1.91-5.93-3.91-8.84-6.02c-1.7-1.3-1.01-3.1,2.52-2.66c9.7,0.77,18.24,2.83,25.63,6.18
		c1.56,0.85,1.07,1.25-0.2,1.4l-7.94-0.07c-1.86,0.13-3.1,1.15-4.33,3.19h4.54l-4.06,13.89h5.11l4.02-13.8h2.98
		c1.76-1.6,3.42-3.51,5.03-5.57c1.29-2.21,1.2-4.73-1.2-6.03c-5.36-2.51-11.32-3.03-15.76-3.21c-7.29,0.2-12.8,0.76-15.54,2.34
		l-1.45,1.22c-4.53-0.02-6.81,1.82-4.94,4.17c1.21,1.61,6.17,3.41,12.16,5.82c4.61,1.54,5.77,5.11,3.17,8.6
		c-1.8,2.58-5.3,4.03-10.35,4.44c-5.42,0.37-10.83,0.31-16.25-0.28C53,80.8,51.3,81.5,50.17,82.31"/>
	<path class="st2" d="M52.78,91.37c0,0,0.02-0.01,0.05-0.02c0.05,0.04,0.07,0.16,0.07,0.37c0,0.07-0.03,0.1-0.09,0.11
		c-0.14,0-0.3-0.03-0.47-0.1c0,0-0.01-0.01-0.02-0.03c0,0,0.03-0.03,0.08-0.07c0.13-0.1,0.24-0.18,0.35-0.24
		C52.77,91.39,52.77,91.38,52.78,91.37L52.78,91.37 M52.9,90.58c-0.01,0.14-0.09,0.25-0.27,0.32c-0.02,0-0.04,0.02-0.06,0.04
		l-0.23,0.14c-0.08,0.03-0.15,0.06-0.2,0.1c-0.01-0.03-0.01-0.05-0.01-0.06c0-0.02,0-0.04,0.01-0.06c0.01-0.05,0.02-0.12,0.03-0.2
		c0-0.08,0.07-0.14,0.19-0.17c0.18-0.04,0.28-0.07,0.31-0.1c0.05-0.01,0.08-0.05,0.09-0.1c0-0.08-0.02-0.16-0.05-0.25
		c-0.09-0.12-0.19-0.2-0.29-0.24c-0.11-0.05-0.14-0.16-0.1-0.32c0.02-0.08,0.04-0.14,0.07-0.16c0.06-0.08,0.14-0.12,0.24-0.12
		c0.06,0,0.12,0.02,0.16,0.07c0.06,0.05,0.09,0.14,0.09,0.28c0,0.05,0.01,0.09,0.02,0.13C52.89,89.92,52.89,90.15,52.9,90.58z
		 M56.34,90.04c0-0.54,0.09-0.94,0.27-1.18c0-0.01,0-0.02,0.01-0.03c0-0.03-0.01-0.06-0.05-0.08c-0.51-0.1-0.84-0.14-0.96-0.12
		c-0.18,0.01-0.38,0.05-0.6,0.12c-0.27,0.05-0.49,0.08-0.67,0.09c-0.05,0-0.09,0.01-0.12,0.02C54.14,88.9,54.1,88.94,54.1,89
		c0.05,0.41,0.04,0.83-0.01,1.26c-0.05,0.28-0.08,0.51-0.09,0.67c0,0.04-0.01,0.09-0.02,0.14c0,0.22-0.09,0.48-0.26,0.79
		c-0.06,0.04-0.12,0.14-0.16,0.31c0,0,0,0-0.01,0.01h-0.04v-0.02l-0.01-0.01c0,0,0-0.01-0.01-0.03c-0.08-0.38-0.08-0.61-0.02-0.7
		c0.02-0.23,0.03-0.5,0.04-0.79c0.02-0.54,0.03-0.84,0.05-0.89c0-0.1,0.04-0.22,0.13-0.36c0.11-0.18,0.15-0.28,0.13-0.31
		c-0.1-0.09-0.33-0.14-0.7-0.14c-0.62,0.12-1.07,0.22-1.34,0.3c-0.21,0.06-0.31,0.12-0.32,0.19c0,1,0.04,1.68,0.13,2.06
		c0,0.05-0.11,0.16-0.34,0.32c-0.11,0.07-0.19,0.11-0.23,0.12c-0.18,0.06-0.27,0.1-0.27,0.15c0,0.04,0.06,0.1,0.17,0.18
		c0.16,0.12,0.28,0.18,0.35,0.19l0.4-0.34c0.01,0,0.1-0.07,0.26-0.2c0.14-0.08,0.22-0.12,0.25-0.13c0.03,0.01,0.09,0.07,0.16,0.16
		c0.41,0.27,0.7,0.43,0.88,0.48c0.08,0.03,0.13,0.05,0.13,0.08c0,0.04-0.14,0.17-0.41,0.41c-0.07,0.04-0.11,0.08-0.13,0.1
		c-0.02,0.02-0.03,0.04-0.05,0.05c-0.08,0.08-0.13,0.13-0.13,0.14c0,0.03,0.03,0.05,0.1,0.05c0.16,0,0.47-0.11,0.93-0.33
		c0.08-0.04,0.12-0.1,0.13-0.16c0-0.08,0.17-0.41,0.52-0.99c0.02-0.05,0.06-0.11,0.11-0.17c0,0,0.01-0.01,0.02-0.03
		c0.08-0.07,0.27-0.19,0.58-0.38c0,0,0.01,0,0.03-0.01c0,0,0.02-0.01,0.05-0.03c0.17-0.04,0.27-0.07,0.29-0.09
		c0.04-0.04,0.05-0.14,0.04-0.29c-0.02-0.09-0.03-0.14-0.05-0.15c-0.02-0.03-0.04-0.04-0.09-0.04c-0.31,0.03-0.49,0.05-0.54,0.06
		c-0.05,0-0.07-0.02-0.08-0.06c0-0.16,0.07-0.27,0.21-0.35c0.28-0.14,0.43-0.26,0.46-0.36c0-0.03,0-0.05,0.01-0.07
		c0-0.12-0.07-0.18-0.21-0.19c-0.11,0.01-0.22,0.03-0.34,0.05c-0.03,0-0.05-0.03-0.05-0.08l0.01-0.19c0-0.13,0.07-0.22,0.22-0.28
		c0.11-0.04,0.22-0.06,0.34-0.07c0.06,0,0.12,0.02,0.16,0.05c0.06,0.04,0.11,0.22,0.14,0.54v0.03c0,1.16,0.02,1.88,0.05,2.13
		c0.01,0.31,0.02,0.58,0.02,0.8c0,0.08-0.02,0.14-0.05,0.18c-0.06,0.04-0.31,0.05-0.74,0.01c-0.28-0.03-0.42-0.03-0.42,0.01
		c0,0.01,0.02,0.05,0.05,0.11c0.08,0.09,0.39,0.23,0.92,0.43c0.16,0.03,0.4,0.1,0.72,0.21c0.11,0.04,0.2,0.06,0.27,0.06
		c0.08,0,0.12-0.03,0.12-0.1c0-0.02-0.01-0.04-0.03-0.06c-0.02-0.07-0.03-0.15-0.04-0.26c-0.08-0.51-0.12-1.23-0.12-2.17
		c0-0.12-0.01-0.27-0.04-0.46C56.33,90.39,56.34,90.21,56.34,90.04z"/>
	<path class="st2" d="M63.44,91.92c-0.1,0-0.21-0.01-0.32-0.02c-0.16,0-0.24,0.03-0.23,0.1c0,0.04,0.22,0.19,0.67,0.47
		c0.06,0.03,0.17,0.09,0.33,0.17c0.24,0.08,0.37,0.12,0.39,0.12c0.05,0,0.08-0.04,0.11-0.12c0.03-0.16,0.01-0.33-0.08-0.52
		c-0.02-0.04-0.05-0.06-0.11-0.07c-0.08-0.01-0.16-0.03-0.25-0.05C63.7,91.94,63.53,91.92,63.44,91.92 M62.08,90.66
		c0-0.01,0-0.03,0.01-0.05c0.01-0.04,0.04-0.1,0.06-0.19c0.02-0.08,0.09-0.12,0.2-0.13c0.02,0,0.05,0,0.1,0.01
		c0.08,0.03,0.12,0.08,0.12,0.18c-0.03,0.27-0.11,0.44-0.25,0.51c-0.04,0-0.07,0.01-0.1,0.02c-0.02,0-0.05,0.01-0.09,0.02
		c-0.08,0-0.12-0.04-0.12-0.12c0-0.03,0.02-0.08,0.06-0.15C62.08,90.73,62.08,90.7,62.08,90.66z M61.29,90.54
		c0.06-0.08,0.13-0.11,0.21-0.11c0.08,0,0.14,0.01,0.17,0.03c0,0.2-0.03,0.34-0.09,0.4c-0.06,0.06-0.11,0.1-0.15,0.1
		c-0.09,0-0.14-0.06-0.14-0.17V90.54z M60.69,90.65c0.08,0,0.14,0.05,0.18,0.14c0.03,0.08,0.06,0.15,0.08,0.2
		c0,0.02-0.02,0.04-0.07,0.06c-0.03,0-0.07,0.01-0.11,0.01c-0.06,0-0.12-0.03-0.17-0.08c-0.05-0.06-0.07-0.13-0.07-0.2
		c0-0.04,0.01-0.07,0.03-0.09C60.61,90.67,60.65,90.65,60.69,90.65z M62.98,89.7c0.05,0,0.08-0.01,0.1-0.03l-0.01-0.25
		c-0.02-0.05-0.06-0.11-0.11-0.17c-0.09-0.09-0.16-0.14-0.21-0.14c-0.03,0-0.1,0.02-0.2,0.06c-0.01,0-0.03,0-0.04,0.01l-0.09,0.02
		c-0.22,0.01-0.39,0.03-0.5,0.06c-0.02,0-0.05,0.01-0.1,0.02c-0.05,0-0.07-0.03-0.08-0.08l0.09-0.49c0.02-0.07,0.04-0.14,0.06-0.22
		c0-0.01-0.02-0.03-0.06-0.05c-0.09-0.04-0.18-0.07-0.26-0.07c-0.04,0-0.09,0.02-0.16,0.06c-0.01,0.01-0.04,0.08-0.06,0.21
		c-0.01,0.1-0.03,0.18-0.05,0.24c-0.01,0.09-0.01,0.14-0.02,0.16l-0.09,0.3c-0.06,0.05-0.19,0.09-0.4,0.12
		c-0.08,0-0.28,0.06-0.61,0.19c-0.02,0-0.02,0-0.02,0.01l-0.1-0.1c-0.08,0.06-0.12,0.11-0.12,0.13c0,0.02,0.01,0.04,0.02,0.06
		c0.03,0.06,0.06,0.1,0.09,0.15c0.01,0.04,0.03,0.07,0.04,0.08c0.03,0.05,0.07,0.08,0.11,0.08c0.38-0.08,0.65-0.11,0.8-0.11
		c0.05,0,0.07,0.02,0.08,0.06c0,0.05-0.02,0.1-0.07,0.14c-0.16,0.08-0.47,0.16-0.91,0.25c-0.16,0.04-0.24,0.09-0.25,0.14
		c0,0.13,0.14,0.37,0.42,0.71c0.05,0.04,0.12,0.1,0.21,0.17c0.12,0.08,0.19,0.12,0.23,0.13c0.12-0.03,0.25-0.07,0.4-0.12
		c0.56-0.2,0.92-0.2,1.08-0.01c0.16,0.13,0.32,0.14,0.48,0.04c0.01-0.01,0.02-0.03,0.04-0.04c0.05-0.06,0.14-0.18,0.26-0.34
		c0.05-0.08,0.11-0.16,0.18-0.24c0.02-0.1,0.11-0.24,0.28-0.41c0.04-0.05,0.06-0.09,0.06-0.11c0-0.04-0.06-0.09-0.17-0.15
		c-0.35-0.15-0.83-0.21-1.46-0.19c-0.08,0.01-0.13,0.02-0.15,0.03c-0.05,0-0.08-0.03-0.09-0.08c0-0.06,0.04-0.1,0.13-0.11
		c0.05,0,0.1-0.02,0.15-0.03c0.15-0.04,0.25-0.06,0.31-0.06H62.98z M61.43,92.19c-0.08-0.08-0.12-0.13-0.12-0.14
		c0-0.01,0.01-0.02,0.03-0.03l0.51-0.11c0.08,0.06,0.16,0.13,0.24,0.21c0.02,0.03,0.04,0.04,0.04,0.06c0,0.01-0.01,0.02-0.02,0.03
		c-0.39,0.01-0.61,0.02-0.67,0.01C61.44,92.21,61.43,92.2,61.43,92.19z M61.8,92.71c0.06-0.01,0.16-0.06,0.3-0.15
		c0.11-0.1,0.18-0.16,0.21-0.16c0.02,0,0.05,0.03,0.09,0.09c0.11,0.17,0.17,0.31,0.17,0.43c0,0.03-0.02,0.07-0.07,0.13
		c-0.06,0.05-0.2,0.08-0.41,0.08c-0.6,0-0.96-0.08-1.08-0.24c-0.09-0.1-0.13-0.33-0.13-0.67c0-0.07,0.01-0.12,0.03-0.14
		c0.02-0.02,0.05-0.04,0.1-0.04c0.06,0,0.11,0.05,0.14,0.15c0.03,0.14,0.1,0.28,0.21,0.41c0.07,0.1,0.13,0.15,0.19,0.16h0.03
		C61.64,92.74,61.7,92.72,61.8,92.71z M62.97,93.64c0.03,0,0.1-0.01,0.2-0.01c0.14,0,0.23-0.02,0.26-0.04
		c0.03-0.01,0.05-0.03,0.05-0.06c-0.03-0.22-0.11-0.4-0.25-0.54c-0.06-0.06-0.1-0.11-0.12-0.15c-0.09-0.12-0.17-0.19-0.24-0.22
		c0-0.04-0.13-0.18-0.4-0.43c-0.06-0.05-0.13-0.1-0.21-0.15c-0.05-0.03-0.07-0.05-0.08-0.07c0-0.03,0.02-0.04,0.06-0.04
		c0.05,0,0.09-0.01,0.13-0.02c0.06-0.01,0.1-0.04,0.1-0.08c-0.08-0.18-0.24-0.29-0.48-0.32c-0.29,0-0.57,0.04-0.86,0.11
		c0.01,0-0.01,0-0.06,0.01c-0.17,0.01-0.36,0.05-0.56,0.11c-0.09,0.02-0.2,0.04-0.32,0.04c-0.08,0-0.12,0.02-0.13,0.06
		c0.11,0.17,0.17,0.27,0.19,0.31c0,0.03-0.06,0.08-0.19,0.15c-0.05,0.01-0.11,0.05-0.18,0.11c-0.16,0.12-0.29,0.22-0.37,0.32
		c-0.09,0.1-0.14,0.16-0.15,0.18c-0.02,0.01-0.02,0.03-0.02,0.05c0,0.04,0.07,0.08,0.21,0.14c0.24,0.08,0.37,0.11,0.39,0.11
		c0.08,0,0.12-0.03,0.12-0.08c0-0.07,0.02-0.14,0.06-0.21c0.03-0.1,0.08-0.2,0.15-0.31c0.02-0.01,0.02-0.03,0.02-0.04
		c0.08-0.14,0.13-0.21,0.16-0.22c0.05,0,0.09,0.08,0.12,0.22c0.01,0.11,0.03,0.19,0.03,0.26c0.1,0.34,0.23,0.56,0.38,0.66
		c0.03,0.01,0.07,0.02,0.11,0.03c0.24,0.04,0.45,0.06,0.65,0.06c0.08,0,0.39,0.02,0.93,0.06c-0.05,0-0.09-0.01-0.14-0.01
		C62.67,93.62,62.82,93.63,62.97,93.64z M59.69,89.11c-0.13-0.12-0.22-0.18-0.29-0.18c-0.07,0-0.14,0.04-0.21,0.13
		c-0.04,0.05-0.08,0.1-0.12,0.16c-0.09,0.08-0.18,0.2-0.26,0.35c-0.11,0.13-0.18,0.23-0.21,0.31c-0.05,0.12-0.1,0.21-0.13,0.26
		c-0.01,0.03-0.01,0.04-0.02,0.05c0,0.04,0.02,0.07,0.07,0.07c0.12,0,0.31-0.1,0.57-0.31c0.12-0.1,0.26-0.2,0.44-0.31
		c-0.03,0.02-0.06,0.04-0.08,0.06c0.26-0.22,0.39-0.35,0.4-0.4C59.86,89.26,59.8,89.2,59.69,89.11z M59.15,92.54
		c0.01-0.3,0.06-0.49,0.13-0.57c0.08-0.23,0.12-0.37,0.12-0.42c-0.01-0.03-0.07-0.06-0.17-0.09c-0.25-0.06-0.35-0.17-0.3-0.31
		c0-0.01,0-0.02,0.01-0.03c0-0.01,0.12-0.12,0.35-0.33c0,0,0.01-0.01,0.03-0.03c0.06-0.06,0.11-0.09,0.13-0.11
		c0.22-0.13,0.34-0.26,0.35-0.38c0-0.04-0.07-0.11-0.21-0.22c-0.08-0.05-0.14-0.08-0.18-0.08c-0.02,0-0.15,0.13-0.4,0.38
		c-0.22,0.32-0.34,0.49-0.36,0.5c-0.05,0.04-0.1,0.1-0.16,0.19c-0.08,0.08-0.16,0.15-0.23,0.23c-0.01,0.02-0.05,0.05-0.1,0.1
		c-0.51,0.43-0.76,0.73-0.77,0.89c0,0.04,0.04,0.06,0.13,0.06c0.02,0,0.05-0.01,0.1-0.02c0.4-0.13,0.66-0.25,0.81-0.34
		c0.06-0.04,0.1-0.07,0.1-0.07c0.01,0,0.04,0,0.06-0.01c0.03,0,0.06,0.02,0.08,0.05c0.05,0.19,0.06,0.31,0.03,0.34
		c-0.05,0.08-0.07,0.42-0.07,1.03c0,0.08,0.01,0.13,0.03,0.15c0.05,0.04,0.14,0.06,0.27,0.06c0.12,0,0.18-0.06,0.18-0.19
		C59.11,92.93,59.12,92.67,59.15,92.54z"/>
	<path class="st2" d="M69.46,91.66c-0.01,0-0.01,0-0.02,0.01c-0.45,0.13-0.84,0.23-1.16,0.3c-0.32,0.07-0.57,0.12-0.74,0.17
		c-0.1,0.01-0.17,0.02-0.22,0.03c-0.12,0-0.18,0.02-0.19,0.06c0,0.11,0.04,0.2,0.13,0.27c0.03,0.03,0.07,0.04,0.12,0.04
		c0.52-0.15,1.26-0.29,2.22-0.4c0.01,0,0.01-0.01,0.02-0.01c0.05,0.03,0.07,0.12,0.08,0.29c0,0.28-0.03,0.48-0.08,0.59
		c-0.02,0.04-0.1,0.08-0.22,0.1c-0.03,0-0.08,0.01-0.15,0.02c-0.04,0-0.12-0.01-0.24-0.01l-0.52-0.08c-0.23-0.04-0.4-0.06-0.53-0.06
		c0,0.03,0.04,0.08,0.13,0.16c0.11,0.12,0.56,0.28,1.33,0.49c0.02,0,0.04,0,0.07,0.01l0.39,0.04c0.02,0,0.03,0.01,0.05,0.01
		c0.07,0,0.11-0.02,0.15-0.06c0-0.01,0.05-0.19,0.14-0.52c0-0.02,0.02-0.12,0.05-0.3c0,0,0-0.01,0.01-0.01
		c-0.02-0.42-0.01-0.65,0.01-0.68c0.05-0.04,0.35-0.07,0.89-0.07c0.07,0,0.28,0.04,0.63,0.12c0.23,0.06,0.37,0.09,0.42,0.07
		c0.05-0.04,0.06-0.11,0.05-0.19c-0.1-0.09-0.21-0.21-0.33-0.36c-0.03-0.02-0.06-0.03-0.08-0.05c-0.83-0.03-1.33-0.03-1.52-0.01
		c-0.02,0-0.06,0-0.12,0.01c-0.01-0.01-0.01-0.02-0.02-0.03c0-0.03-0.01-0.05-0.02-0.08c0-0.04,0.03-0.08,0.08-0.1l0.58-0.26
		c0.06-0.04,0.1-0.08,0.1-0.12s-0.04-0.08-0.13-0.12c-0.07-0.03-0.11-0.05-0.15-0.06c-0.15-0.08-0.42-0.11-0.8-0.11
		c-0.03,0-0.22,0.05-0.58,0.14l-0.42,0.09c-0.16,0.03-0.33,0.07-0.49,0.11c-0.01,0-0.01,0-0.01,0.01c-0.3,0.05-0.49,0.08-0.59,0.08
		c-0.04,0-0.07,0.01-0.09,0.02c-0.02,0-0.03,0.02-0.03,0.05c0,0.01,0.11,0.12,0.33,0.32c0.03,0.03,0.08,0.05,0.13,0.05
		c0.04,0,0.1-0.03,0.19-0.08c0.36-0.19,0.74-0.34,1.16-0.44c0.02,0,0.11-0.03,0.28-0.1c0.13-0.03,0.21-0.04,0.24-0.04
		c0.01,0,0.02,0.01,0.03,0.02c0,0.07-0.04,0.14-0.12,0.23c-0.07,0.06-0.17,0.09-0.33,0.1c-0.23,0-0.35,0.03-0.38,0.08
		c0,0.03,0.07,0.1,0.21,0.22L69.46,91.66 M69.47,89.58c0.1-0.05,0.3-0.08,0.6-0.08c0.1,0,0.18,0.02,0.24,0.06
		c0.05,0.03,0.08,0.11,0.09,0.24c0,0.27-0.06,0.45-0.16,0.54h-0.05c-0.05-0.05-0.11-0.09-0.15-0.12c-0.75,0.1-1.15,0.16-1.21,0.16
		l-0.04-0.03c0,0-0.01-0.02-0.02-0.03c-0.04-0.28-0.04-0.44-0.02-0.46c0.01-0.01,0.05-0.03,0.14-0.06c0.02,0,0.12-0.04,0.31-0.12
		L69.47,89.58z M65.25,92.95c0.05,0.03,0.12,0.03,0.21,0.01c0.03,0,0.14-0.04,0.31-0.11l0.65-0.37c0-0.01,0.03-0.03,0.06-0.05
		c0.07-0.04,0.14-0.1,0.22-0.17c0.04-0.04,0.06-0.12,0.06-0.24c0-0.1,0.12-0.3,0.35-0.6c0-0.01,0.09-0.13,0.28-0.35
		c0.05-0.07,0.1-0.14,0.15-0.2c0.11-0.21,0.18-0.34,0.21-0.41c0.02-0.02,0.03-0.04,0.06-0.06c0.02-0.03,0.03-0.05,0.05-0.06
		c0.02-0.08,0.06-0.14,0.11-0.2c0,0,0.01-0.01,0.02-0.01c0,0,0.01,0,0.02,0.01c0.26,0.41,0.46,0.65,0.59,0.7
		c0.03,0,0.3-0.06,0.79-0.19c0.43-0.08,0.74-0.09,0.94-0.03c0.16,0.04,0.25,0.06,0.25,0.07c0.08,0,0.14-0.01,0.18-0.04
		c0.01-0.03,0.04-0.09,0.11-0.18c0,0,0-0.01,0.02-0.01c0.16-0.44,0.34-0.76,0.54-0.94c-0.01-0.04-0.09-0.1-0.24-0.18
		c-0.34-0.15-0.77-0.19-1.29-0.1c-0.24,0-0.77,0.1-1.58,0.3c-0.02,0-0.04-0.01-0.06-0.01c0-0.06,0.01-0.14,0.04-0.24
		c0.02-0.01,0.04-0.03,0.06-0.04c0.01,0,0.11-0.03,0.33-0.08c0.11-0.05,0.38-0.08,0.79-0.08c0.47-0.13,0.9-0.2,1.28-0.2
		c0.04,0,0.06-0.02,0.07-0.07c0-0.04-0.04-0.11-0.13-0.21c-0.02-0.02-0.03-0.04-0.05-0.07c-0.02-0.04-0.06-0.08-0.11-0.12
		c-0.05-0.04-0.1-0.06-0.15-0.06c-0.05,0-0.2,0.03-0.47,0.1c-0.31,0.04-0.6,0.09-0.89,0.17c-0.5,0.07-0.77,0.09-0.81,0.09
		c-0.05-0.01-0.12-0.03-0.2-0.06c-0.04,0-0.08-0.01-0.11-0.01c-0.08,0-0.13,0.02-0.15,0.05c-0.08,0.21-0.12,0.45-0.13,0.72
		c-0.01,0.04-0.01,0.08-0.02,0.14c-0.01,0.04-0.02,0.09-0.05,0.17L67.5,89.9c-0.04,0.07-0.06,0.12-0.07,0.17l-0.26,0.56
		c-0.01,0-0.01,0-0.02,0.01c-0.03,0.08-0.07,0.16-0.12,0.25c-0.01,0.01-0.02,0.03-0.03,0.06c-0.13,0.19-0.23,0.36-0.3,0.5
		c-0.3,0.39-0.52,0.65-0.68,0.78c0,0.01,0,0.02-0.01,0.03c-0.03,0.02-0.06,0.04-0.08,0.07C65.48,92.67,65.26,92.88,65.25,92.95z
		 M69.23,90.19c0.28,0,0.5-0.05,0.67-0.16c0.04-0.04,0.06-0.1,0.07-0.17c0-0.1-0.05-0.16-0.15-0.16c-0.11,0-0.33,0.05-0.66,0.16
		c-0.08,0.01-0.11,0.02-0.1,0.02c-0.09,0.02-0.14,0.03-0.15,0.04c-0.02,0.01-0.03,0.04-0.04,0.07c0.02,0.04,0.05,0.08,0.09,0.14
		l0.02,0.04C69.01,90.18,69.09,90.19,69.23,90.19z"/>
	<path class="st2" d="M75.54,88.52c-0.12,0.04-0.25,0.08-0.38,0.12c-0.06,0.02-0.09,0.04-0.09,0.08c0,0.11,0.09,0.22,0.25,0.32
		c0.13,0.1,0.26,0.15,0.38,0.15c0.04,0,0.07-0.02,0.1-0.05c0.05-0.14,0.15-0.32,0.31-0.55c0.02-0.05,0.03-0.11,0.05-0.17
		c0-0.02-0.02-0.04-0.05-0.04c-0.04,0-0.23,0.04-0.54,0.12C75.57,88.51,75.56,88.51,75.54,88.52 M74.69,89.04
		c-0.17-0.13-0.28-0.19-0.32-0.19c-0.09,0-0.17,0.02-0.23,0.07c-0.09,0.09-0.1,0.28-0.03,0.57c0,0.06,0.1,0.1,0.3,0.12
		c0.21,0,0.35,0.01,0.42,0.03c0.19,0,0.29-0.05,0.29-0.16C75.12,89.39,74.98,89.25,74.69,89.04z M74.67,91.75
		c-0.7,0.18-1.06,0.28-1.08,0.3c-0.03,0.05,0.03,0.17,0.17,0.36c0.28-0.12,0.95-0.26,2.01-0.41h0.02c0.04,0,0.07,0.03,0.07,0.1v0.56
		c-0.05,0.11-0.09,0.22-0.12,0.34c-0.04,0.02-0.09,0.05-0.13,0.09c-0.15,0.01-0.29,0.03-0.43,0.05c-0.01,0-0.03-0.01-0.04-0.01
		c-0.25-0.04-0.47-0.08-0.66-0.13c-0.02,0.01-0.03,0.03-0.03,0.05c0,0.09,0.11,0.19,0.34,0.29c0.45,0.2,0.87,0.33,1.27,0.4h0.01
		c0.04,0,0.08-0.02,0.12-0.06c0.12-0.15,0.21-0.48,0.28-1c0.04-0.51,0.09-0.78,0.13-0.79c0.03-0.03,0.18-0.04,0.44-0.04
		c0.03-0.03,0.26-0.01,0.69,0.03c0.28,0.08,0.43,0.11,0.45,0.11c0.08,0,0.12-0.05,0.13-0.14c0-0.03-0.02-0.08-0.05-0.17
		c-0.01-0.05-0.03-0.11-0.04-0.17c-0.02-0.11-0.08-0.19-0.17-0.22c-0.3-0.05-0.8-0.03-1.5,0.06c-0.05,0-0.09-0.03-0.1-0.09
		c-0.01-0.05-0.01-0.11-0.01-0.16c0.07-0.03,0.16-0.06,0.27-0.09c0.07-0.01,0.15-0.04,0.24-0.09c0.11-0.07,0.23-0.15,0.35-0.21
		c0.41,0,0.81-0.03,1.19-0.07l0.15-0.02c0.06,0,0.09-0.04,0.1-0.09c0-0.19-0.39-0.48-1.17-0.89c-0.01-0.01-0.02-0.02-0.03-0.02
		c-0.07-0.02-0.33-0.05-0.8-0.11c-0.03,0-0.05-0.02-0.05-0.04c0,0,0.13-0.13,0.38-0.37c0.15-0.15,0.25-0.23,0.29-0.26
		c0.18-0.09,0.27-0.15,0.27-0.17c-0.21-0.25-0.4-0.38-0.57-0.41h-0.01c-0.06,0-0.15,0.07-0.26,0.22c-0.39,0.55-0.66,0.9-0.83,1.03
		c-0.11,0.07-0.34,0.16-0.68,0.27c-0.24,0.08-0.61,0.22-1.11,0.41c-0.16,0.01-0.25,0.05-0.25,0.11v0.03c0,0.05,0.02,0.09,0.06,0.14
		c0.03,0.03,0.07,0.05,0.1,0.05c0.27-0.1,0.52-0.15,0.75-0.15c0.49-0.14,0.86-0.23,1.1-0.27c0.22-0.09,0.65-0.18,1.28-0.27
		c0.01,0,0.02-0.01,0.03-0.01c0.05,0,0.15,0.02,0.31,0.09c0.1,0.05,0.16,0.11,0.16,0.19c0,0.1-0.05,0.2-0.16,0.29
		c-0.16,0.09-0.27,0.14-0.31,0.14c-0.51-0.17-0.81-0.26-0.88-0.25c-0.19,0-0.8,0.16-1.81,0.47c-0.02,0-0.04,0-0.05,0.01
		c-0.04,0.01-0.07,0.04-0.07,0.08c0,0.13,0.09,0.25,0.26,0.37c0.04,0.03,0.09,0.04,0.13,0.04c0.04,0,0.18-0.07,0.4-0.22
		c0.06-0.02,0.24-0.07,0.53-0.15c0.04-0.03,0.11-0.08,0.19-0.16c0.09-0.11,0.21-0.17,0.34-0.17c0.06,0,0.09,0.03,0.09,0.09
		c0,0.04-0.05,0.11-0.16,0.23c-0.12,0.1-0.26,0.15-0.43,0.15c-0.06,0.03-0.1,0.06-0.1,0.1l0.15,0.29c0,0.04-0.04,0.07-0.13,0.09
		C75.42,91.54,75.07,91.62,74.67,91.75z M72.84,91c0,0.07,0.14,0.15,0.42,0.21c0.16,0.04,0.26,0.06,0.31,0.06
		c0.12,0,0.19-0.04,0.19-0.12c0,0,0-0.01-0.01-0.03c-0.06-0.17-0.06-0.39-0.01-0.64c0.01-0.04-0.03-0.06-0.11-0.06
		c-0.14,0-0.32,0.07-0.53,0.22c-0.15,0.12-0.24,0.24-0.27,0.36V91z"/>
	<path class="st2" d="M86.54,89.68c0.12,0.01,0.23,0.01,0.33,0c0-0.01,0.02-0.02,0.04-0.02c0-0.11-0.03-0.19-0.1-0.25
		c-0.05-0.07-0.23-0.16-0.53-0.28c-0.06-0.04-0.13-0.08-0.2-0.12c0,0-0.01-0.01-0.03-0.02c-0.06,0.02-0.1,0.05-0.11,0.07
		c-0.01,0.02-0.01,0.18-0.01,0.48c0.03,0.07,0.11,0.1,0.23,0.1c0.02,0,0.04,0,0.06-0.01c0,0,0.01,0,0.03,0.01
		c0.01,0.01,0.03,0.02,0.05,0.02C86.36,89.66,86.45,89.67,86.54,89.68 M83.74,91.35L83.74,91.35c-0.07-0.06-0.12-0.1-0.14-0.12
		c-0.04-0.03-0.23-0.12-0.57-0.25c-0.03-0.02-0.06-0.05-0.08-0.08c0,0-0.01-0.01-0.02-0.02c-0.01,0-0.04-0.01-0.07-0.02
		c-0.03,0-0.06,0.02-0.08,0.05c-0.05,0.07-0.07,0.18-0.08,0.33c0,0.09,0.04,0.17,0.11,0.22c0.13,0.07,0.4,0.07,0.8,0.02
		c0.04,0,0.08-0.01,0.1-0.03c0.02-0.02,0.03-0.05,0.04-0.1L83.74,91.35z M82.5,90.32c0,0.13,0.07,0.27,0.22,0.4
		c0,0,0.01,0.01,0.02,0.02c0.03,0.02,0.05,0.03,0.07,0.03c0.03,0,0.1-0.02,0.21-0.07c0.08-0.05,0.36-0.1,0.83-0.14
		c0.13-0.01,0.23-0.01,0.3-0.01l0.04,0.03c0,0.36,0.01,0.57,0.04,0.62c0,0.09,0.02,0.25,0.05,0.47c0.03,0.65,0.03,1-0.01,1.05
		c-0.01,0.01-0.03,0.02-0.04,0.04c-0.09,0.05-0.23,0.06-0.42,0.04H83.8c-0.12,0-0.3-0.04-0.54-0.1c-0.03,0-0.08-0.01-0.15-0.01v0.04
		c0.09,0.08,0.17,0.13,0.23,0.16c0,0,0.03,0.02,0.09,0.06c0.1,0.08,0.42,0.2,0.95,0.36c0.06,0.02,0.13,0.05,0.2,0.08
		c0.18,0.07,0.3,0.1,0.37,0.1c0.01,0,0.04-0.01,0.06-0.02c0.01-0.01,0.02-0.05,0.03-0.13c-0.02-0.09-0.04-0.19-0.06-0.28
		c-0.03-0.18-0.05-0.36-0.06-0.56l-0.01-0.79c0.01-0.02,0.04-0.03,0.07-0.03c0.07,0,0.3,0.1,0.67,0.3c0.01,0.01,0.04,0.02,0.07,0.04
		L86,92.2c0.08,0.04,0.16,0.15,0.25,0.33c0,0.1,0.14,0.15,0.41,0.16c0.15,0.02,0.51,0.02,1.1,0c0.2-0.01,0.36-0.05,0.48-0.11
		c0-0.02,0-0.04,0.01-0.06c-0.07-0.09-0.3-0.18-0.68-0.25h-0.01c-0.01,0-0.03-0.01-0.04-0.01l-0.78-0.17c-0.03,0-0.05,0-0.07,0.01
		c-0.45-0.2-0.89-0.47-1.31-0.82c0-0.03,0.23-0.17,0.69-0.4c0.1-0.07,0.17-0.1,0.21-0.11c0.04-0.02,0.15-0.06,0.31-0.11
		c0-0.07-0.03-0.13-0.08-0.19c-0.08-0.08-0.15-0.12-0.23-0.13c-0.03,0-0.08,0.03-0.15,0.08c-0.02,0-0.02,0.01-0.03,0.02
		c-0.04,0.01-0.27,0.16-0.69,0.43c-0.03,0.02-0.07,0.04-0.1,0.06c-0.14,0.07-0.22,0.1-0.24,0.11c-0.07,0-0.12-0.03-0.15-0.1
		c-0.03-0.03-0.04-0.16-0.04-0.37c0-0.09,0.03-0.14,0.09-0.17c0,0,0.03-0.01,0.07-0.02c0.06-0.01,0.27-0.06,0.62-0.16
		c0,0,0.02-0.01,0.04-0.01c0.09,0,0.16-0.01,0.2-0.02c0.04-0.01,0.07-0.04,0.07-0.07c0-0.04-0.1-0.17-0.3-0.4
		c-0.02-0.02-0.04-0.04-0.07-0.04l-0.61,0.12c-0.05,0-0.08-0.02-0.08-0.07c0-0.6,0.03-0.93,0.09-0.97c0,0,0-0.01,0.01-0.03
		c0.03-0.02,0.06-0.05,0.11-0.09v-0.03c-0.06-0.04-0.18-0.09-0.36-0.13l-0.04-0.03h-0.03c0,0-0.01,0.01-0.01,0.02
		c-0.06-0.01-0.11-0.02-0.17-0.02c-0.04,0.02-0.07,0.17-0.09,0.43c0,0.11-0.01,0.22-0.02,0.34c0,0.02-0.04,0.27-0.11,0.73
		c-0.05,0.03-0.15,0.07-0.29,0.1c-0.15,0.02-0.26,0.05-0.34,0.08c-0.03,0-0.23,0.02-0.59,0.07l-0.47,0.06
		c-0.01,0.01-0.03,0.03-0.04,0.04V90.32z M83.52,91.73c-0.04,0.01-0.24,0.11-0.6,0.3c-0.01,0-0.02,0.01-0.02,0.02
		c-0.28,0.12-0.51,0.22-0.69,0.31c-0.22,0.08-0.34,0.15-0.34,0.2c0,0.03,0.11,0.13,0.32,0.32c0.05,0.04,0.1,0.07,0.17,0.09
		c0.04,0,0.12-0.07,0.24-0.2l0.59-0.42c0.52-0.42,0.79-0.65,0.82-0.69c0.06-0.04,0.09-0.07,0.09-0.11c0-0.03-0.02-0.05-0.06-0.05
		C83.95,91.49,83.78,91.57,83.52,91.73z"/>
	<path class="st2" d="M91.08,89.99h-0.04c-0.06,0-0.09-0.02-0.1-0.05c0-0.05,0.04-0.1,0.13-0.14c0.27-0.11,0.43-0.18,0.47-0.21
		c0.05-0.07,0.05-0.18,0.03-0.33c-0.02-0.02-0.04-0.04-0.09-0.04c-0.01,0-0.03,0-0.06,0.01c-0.06,0.01-0.16,0.03-0.31,0.06
		c-0.02-0.02-0.03-0.03-0.03-0.05c-0.01-0.02,0.03-0.07,0.12-0.15c0.11-0.1,0.24-0.14,0.38-0.15c0.07,0,0.14,0.04,0.21,0.11
		c0.03,0.05,0.05,0.42,0.06,1.11c0,0.06-0.03,0.09-0.08,0.1c-0.02,0-0.04-0.01-0.07-0.02c-0.03-0.01-0.06-0.09-0.09-0.23
		C91.59,89.95,91.42,89.94,91.08,89.99 M91.23,91.83c0,0.04-0.01,0.05-0.04,0.06c-0.09,0-0.21-0.06-0.37-0.19
		c-0.04-0.04-0.07-0.1-0.07-0.18c0-0.1,0.03-0.17,0.1-0.23c0.03-0.05,0.09-0.07,0.17-0.07c0.12,0,0.18,0.08,0.19,0.24L91.23,91.83z
		 M89.33,92.44l-0.63,0.23c-0.18,0.06-0.27,0.11-0.27,0.16c0,0.06,0.1,0.09,0.31,0.09c0.3,0,0.6-0.06,0.9-0.17
		c0.04-0.02,0.07-0.03,0.11-0.04c0.09-0.04,0.15-0.09,0.18-0.16c0-0.11,0.06-0.21,0.18-0.31c0.06-0.07,0.42-0.03,1.07,0.13
		c0.27,0.13,0.53,0.21,0.77,0.25c0.28,0.04,0.49,0.13,0.63,0.26c0.01,0,0.08,0.08,0.1,0.12c0.06,0.08,0.06,0.19,0.1,0.29
		c0.02,0.05,0.1,0.08,0.26,0.09c0.26,0,0.42,0.01,0.48,0.03c0.09,0,0.29,0.01,0.61,0.04c0.37-0.02,0.57-0.03,0.6-0.02
		c0.14-0.04,0.28-0.08,0.43-0.12c0.06-0.02,0.09-0.04,0.09-0.08c0-0.04-0.06-0.07-0.18-0.11c-0.36-0.11-1.07-0.27-2.13-0.48
		c-0.03-0.01-0.38-0.14-1.04-0.38c-0.07-0.02-0.1-0.07-0.1-0.13c0-0.01,0.01-0.04,0.01-0.08c0.05-0.12,0.1-0.19,0.16-0.22
		c0.2-0.1,0.44-0.15,0.74-0.15c0.03-0.01,0.05-0.04,0.05-0.08c0-0.01-0.01-0.05-0.04-0.11c0,0.01,0,0-0.01-0.04
		c0-0.04-0.01-0.07-0.02-0.1c-0.02-0.02-0.2-0.04-0.55-0.04c-0.01,0-0.06,0-0.16,0.01c-0.06,0-0.09-0.02-0.09-0.08
		c0-0.02,0.01-0.04,0.02-0.07c0.02-0.05,0.07-0.08,0.14-0.08c0.02,0,0.05,0,0.09-0.01c0.72-0.05,1.17-0.05,1.35-0.01
		c0.08,0,0.11-0.03,0.12-0.09c0-0.02,0-0.03-0.01-0.05c0-0.1-0.04-0.21-0.13-0.36c-0.06-0.08-0.13-0.11-0.21-0.11l-0.61,0.08
		c-0.07,0-0.1-0.04-0.1-0.12c0-0.1,0.05-0.55,0.16-1.35c0.03-0.11,0.07-0.22,0.12-0.33c-0.04-0.07-0.21-0.12-0.5-0.14
		c-0.42-0.01-1.02,0.07-1.82,0.23c-0.05,0-0.1,0.01-0.16,0.03c-0.07,0-0.11,0.04-0.14,0.11c-0.06,0.17,0,0.6,0.17,1.31
		c0.02,0.1,0.02,0.15,0.03,0.17c0.03,0.11,0.1,0.16,0.22,0.16c0.47-0.18,0.72-0.26,0.75-0.25c0.09,0.02,0.18,0.06,0.27,0.11
		c0.11,0.07,0.17,0.11,0.17,0.12c-0.02,0.01-0.17,0.05-0.46,0.1c-0.67,0.07-1.6,0.27-2.8,0.59c-0.06,0-0.05,0.08,0.02,0.23
		c-0.01,0,0.01,0.01,0.03,0.04c0.08,0.07,0.15,0.12,0.2,0.12c0.18-0.12,0.59-0.22,1.24-0.3c0.01,0,0.02-0.01,0.04-0.01
		c0.06,0,0.09,0.03,0.09,0.1c0,0.11-0.1,0.28-0.3,0.52c-0.06,0.05-0.19,0.17-0.4,0.37C89.45,92.37,89.39,92.4,89.33,92.44z"/>
	<path class="st2" d="M99.83,91c0.01,0.17,0.06,0.3,0.12,0.39c0.04,0.05,0.08,0.08,0.14,0.09c0.06,0,0.12-0.02,0.18-0.06
		c0.09-0.06,0.14-0.2,0.15-0.42c0-0.12,0.05-0.33,0.15-0.65c0-0.02-0.01-0.03-0.03-0.04c-0.06-0.05-0.26-0.1-0.59-0.14
		c-0.02,0-0.02-0.01-0.02-0.01c-0.1,0-0.15,0.04-0.15,0.13c0,0.02,0.01,0.05,0.02,0.07L99.83,91 M99.65,92.67
		c0,0.12,0.21,0.28,0.62,0.5c0.11,0.06,0.26,0.12,0.44,0.17c0.04,0.01,0.07,0.03,0.11,0.04c0.48,0.17,0.8,0.26,0.97,0.27
		c0.12,0,0.19-0.06,0.19-0.17c-0.18-1.3-0.24-2.12-0.17-2.46c-0.08-1.32-0.05-2.06,0.1-2.21c0,0,0.01-0.01,0.02-0.01
		c0-0.01,0-0.03,0.01-0.04c0-0.06-0.09-0.13-0.27-0.19c-0.25-0.08-0.39-0.12-0.41-0.12c-0.03,0-0.07,0.01-0.11,0.04
		c-0.05,0.02-0.07,0.08-0.07,0.16l0.01,1.9c0,0.04,0,0.09,0.01,0.13c0.01,0.13,0.01,0.37,0.02,0.74c0.05,0.99,0.06,1.49,0.05,1.51
		c-0.04,0.04-0.16,0.06-0.38,0.06c-0.51-0.05-0.81-0.12-0.91-0.21C99.79,92.7,99.7,92.67,99.65,92.67z M98.49,91.04
		c-0.01,0.05-0.01,0.11-0.01,0.18c-0.01,0.14-0.05,0.25-0.12,0.34c-0.04,0.04-0.1,0.06-0.19,0.06c-0.09,0-0.14-0.02-0.15-0.07
		c-0.01-0.07-0.01-0.11-0.02-0.12c-0.06-0.06-0.16-0.09-0.31-0.09c-0.02,0-0.04,0-0.08,0.01c-0.02,0-0.03-0.01-0.04-0.02
		c0-0.03,0.19-0.14,0.58-0.34c0.11-0.04,0.21-0.05,0.3-0.02C98.47,90.97,98.48,91,98.49,91.04z M97.4,90.17
		c-0.45,0.51-0.93,0.97-1.44,1.38c-0.01,0.01-0.02,0.02-0.04,0.03c-0.06,0.06-0.1,0.11-0.11,0.13c-0.03,0.05-0.08,0.1-0.14,0.15
		c-0.02,0.01-0.03,0.03-0.03,0.05c0,0.03,0.02,0.04,0.05,0.04c0.02,0,0.05-0.01,0.08-0.02c0.01,0,0.01-0.01,0.02-0.01
		c0.02,0,0.03-0.01,0.05-0.01c0.09-0.02,0.21-0.05,0.35-0.08c0.03,0,0.16-0.05,0.39-0.15c0.03-0.02,0.07-0.03,0.11-0.04
		c0.04-0.01,0.08-0.04,0.13-0.08c0.05-0.05,0.14-0.11,0.28-0.19l0.14-0.09c0.01,0,0.01,0,0.02-0.01l0.22,0.04
		c0.02,0,0.03,0.04,0.04,0.11c-0.1,0.81-0.15,1.23-0.15,1.26c0.03,0.23,0.18,0.41,0.45,0.54c0.1,0.08,0.46,0.06,1.09-0.04
		c0.02,0,0.03,0,0.05-0.01c0.09-0.01,0.16-0.04,0.22-0.07c0.03-0.02,0.05-0.07,0.05-0.15c-0.02-0.16-0.05-0.3-0.1-0.42l-0.16-0.39
		c-0.02-0.02-0.04-0.03-0.06-0.03c-0.09,0-0.15,0.07-0.16,0.22c-0.01,0.1-0.03,0.21-0.08,0.31c-0.04,0.07-0.09,0.12-0.18,0.14
		c-0.16,0.04-0.28,0.06-0.37,0.06c-0.08,0-0.16-0.02-0.23-0.07c-0.09-0.07-0.11-0.22-0.05-0.44c0.04-0.19,0.08-0.3,0.14-0.34
		c0.02-0.03,0.19-0.02,0.5,0.01c0.15,0,0.3-0.1,0.43-0.31c0.01-0.02,0.02-0.04,0.03-0.05l0.12-0.24c0.02-0.03,0.04-0.11,0.09-0.23
		c0.02-0.06,0.02-0.11,0.03-0.13c0-0.03,0.01-0.06,0.02-0.09c0.06-0.05,0.09-0.12,0.09-0.21c0-0.03-0.04-0.06-0.11-0.1
		c-0.28-0.14-0.61-0.14-1.01,0c-0.2,0.07-0.31,0.11-0.33,0.12c-0.2,0.09-0.32,0.14-0.35,0.15c-0.04,0-0.06-0.02-0.06-0.06
		c0-0.06,0.11-0.23,0.33-0.49c0.06-0.09,0.14-0.17,0.22-0.23c0.06-0.06,0.14-0.13,0.22-0.2c0.08-0.05,0.14-0.07,0.19-0.07
		c0.11,0,0.23,0.05,0.37,0.16c0.13,0.1,0.25,0.15,0.36,0.13c0.12-0.02,0.21-0.05,0.25-0.07c0.17-0.09,0.26-0.16,0.26-0.22
		c0-0.1-0.13-0.17-0.39-0.21c-0.22-0.02-0.33-0.03-0.35-0.05c-0.1-0.02-0.15-0.05-0.15-0.11c0.22-0.23,0.33-0.36,0.33-0.38
		c-0.01-0.04-0.05-0.09-0.1-0.15c-0.02-0.01-0.03-0.03-0.05-0.06c-0.07-0.09-0.12-0.13-0.17-0.13c-0.07,0-0.24,0.15-0.52,0.45
		c-0.02,0.03-0.04,0.05-0.06,0.08L97.4,90.17z"/>
	<path class="st2" d="M105.38,92.64c0.36,0,0.64-0.12,0.86-0.35c0.16-0.23,0.22-0.41,0.17-0.54c0-0.32,0.17-0.54,0.5-0.68
		c0.07-0.03,0.14-0.05,0.22-0.05c0.03,0,0.05,0.01,0.07,0.03c0.05,0.04,0.1,0.5,0.15,1.4c0.01,0.05,0.01,0.25,0.02,0.6
		c0,0.5,0.04,0.77,0.13,0.83c0.04,0.01,0.09,0.02,0.15,0.02c0.21,0,0.31-0.05,0.32-0.16c-0.02-0.25-0.02-0.62-0.02-1.1
		c-0.02-0.56-0.02-0.89,0.01-1.01c-0.01-0.09,0.01-0.27,0.08-0.54c0.02-0.08,0.05-0.13,0.11-0.17c0.03-0.04,0.28-0.04,0.75-0.01
		c0.01,0,0.01,0,0.02,0c0.05,0,0.1,0.01,0.16,0.02c0.1,0,0.15-0.04,0.15-0.11c0-0.04-0.03-0.11-0.08-0.2
		c-0.1-0.16-0.16-0.26-0.2-0.29c-0.08-0.08-0.14-0.12-0.18-0.12c-0.07,0-0.17,0.01-0.3,0.02c-0.19,0.02-0.73,0.14-1.63,0.37h-0.08
		c-0.05-0.11,0.02-0.26,0.19-0.44c0.08-0.12,0.3-0.19,0.68-0.22c0.04,0,0.13-0.04,0.29-0.11c0.25-0.08,0.38-0.13,0.41-0.18
		c0.01-0.03,0.01-0.07,0.02-0.11c0-0.06-0.03-0.13-0.1-0.21c-0.05-0.05-0.12-0.08-0.2-0.08c-0.17,0-0.54,0.1-1.12,0.28
		c0,0-0.01,0-0.01,0.01c-0.36,0.06-0.55,0.12-0.58,0.16c-0.01,0.01-0.02,0.31-0.03,0.9c-0.02,0.11-0.04,0.23-0.05,0.35l-0.07,0.32
		c-0.11,0.3-0.17,0.47-0.19,0.51c-0.02,0.03-0.03,0.05-0.04,0.08l-0.24,0.35c-0.17,0.19-0.27,0.32-0.31,0.38V92.64 M105.15,88.03
		c-0.08,0-0.15,0.03-0.22,0.1c-0.16,0.13-0.23,0.3-0.23,0.52c0,0.06,0.04,0.12,0.12,0.2c0.14,0.13,0.3,0.19,0.49,0.19
		c0.05,0,0.12-0.02,0.23-0.06c0.07-0.24-0.02-0.51-0.26-0.82l-0.09-0.11L105.15,88.03z M104,92.38c0.01-0.09,0.02-0.17,0.04-0.26
		c0.01-0.03,0.01-0.06,0.02-0.08c0-0.14,0.01-0.22,0.04-0.25c0.02-0.02,0.06-0.04,0.13-0.05c0.08,0,0.13-0.01,0.15-0.02
		c0.05-0.01,0.11-0.02,0.2-0.03c0.06,0.09,0.08,0.31,0.06,0.66c0,0.05-0.02,0.09-0.05,0.11c-0.04,0.04-0.11,0.06-0.23,0.06
		c-0.11,0-0.19-0.02-0.25-0.04c-0.04-0.01-0.07-0.04-0.1-0.08V92.38z M104.23,91.3c-0.17,0.06-0.35,0.12-0.52,0.18
		c-0.05,0-0.32,0.07-0.83,0.2c-0.1,0.02-0.15,0.04-0.17,0.07c-0.02,0.05-0.01,0.1,0.03,0.16c0.03,0.05,0.09,0.1,0.19,0.15l0.07-0.02
		c0.07-0.04,0.3-0.11,0.71-0.2l0.02,0.02c-0.01,0-0.01,0-0.01,0.01c-0.01,0-0.01,0.02-0.02,0.03c-0.04,0.02-0.07,0.05-0.1,0.09
		c0,0-0.02,0.01-0.05,0.05c-0.03,0.04-0.06,0.07-0.09,0.1c-0.29,0.3-0.44,0.49-0.44,0.54c0,0.04,0.04,0.08,0.11,0.13
		c0.2,0.08,0.32,0.12,0.37,0.13c0.08,0,0.14-0.03,0.18-0.08c0.08-0.21,0.24-0.23,0.47-0.04l0.04,0.03c0.01,0,0.02,0.01,0.05,0.02
		c0.34,0.14,0.56,0.21,0.65,0.21c0.08,0,0.14-0.03,0.18-0.08c0.05-0.13,0.05-0.35,0-0.68c0,0.01,0,0.03,0.01,0.04
		c-0.02-0.13-0.02-0.2-0.01-0.21c0.29,0,0.46-0.01,0.51-0.02c0,0,0-0.01,0.01-0.01c0.06-0.05,0.09-0.1,0.09-0.14
		c0-0.09-0.1-0.17-0.29-0.25c-0.14-0.05-0.22-0.09-0.25-0.11V91.6c0-0.04,0.04-0.07,0.12-0.09c0.23-0.04,0.36-0.06,0.4-0.06
		c0.02-0.01,0.05-0.02,0.08-0.03c0.19-0.04,0.28-0.09,0.29-0.14c0-0.08-0.04-0.15-0.12-0.23c-0.07-0.05-0.12-0.08-0.17-0.08
		c-0.06,0-0.21,0.03-0.43,0.1c-0.05-0.02-0.07-0.06-0.07-0.1c0-0.02,0.01-0.05,0.02-0.08c0.03-0.02,0.15-0.07,0.36-0.15
		c0.19-0.08,0.28-0.16,0.29-0.26c0-0.05-0.02-0.09-0.05-0.13c-0.03-0.02-0.1-0.04-0.2-0.04c-0.03,0-0.06-0.01-0.09-0.02
		c0-0.01,0-0.02-0.01-0.04c0-0.05,0.07-0.11,0.2-0.17c0.23-0.12,0.25-0.23,0.05-0.33c-0.06-0.02-0.12-0.05-0.18-0.08
		c-0.02,0-0.03-0.01-0.05-0.02c-0.01,0-0.01-0.02-0.02-0.04c0.04-0.03,0.09-0.05,0.16-0.06c0.19-0.06,0.29-0.16,0.29-0.31
		l-0.02-0.01v-0.01c-0.21-0.09-0.57-0.06-1.09,0.08c-0.86,0.17-1.32,0.28-1.37,0.32c0,0.08,0.05,0.18,0.15,0.32
		c0.1-0.02,0.2-0.05,0.32-0.09c0.09-0.02,0.17-0.03,0.23-0.01c-0.08,0.14-0.15,0.28-0.22,0.44c-0.02,0.02-0.03,0.06-0.04,0.11
		c0,0.09,0.04,0.14,0.12,0.14c0.02,0,0.03,0,0.04-0.01c0.02,0,0.05-0.01,0.08-0.02c0.11-0.03,0.25-0.16,0.42-0.39
		c0.11-0.15,0.23-0.23,0.36-0.23c0.05,0,0.07,0.03,0.07,0.09c0,0.1-0.09,0.23-0.27,0.4c-0.06,0.06-0.4,0.18-1.02,0.37
		c-0.05,0.01-0.1,0.03-0.15,0.05c-0.02,0-0.04,0-0.07,0.01c-0.04,0-0.08,0.03-0.12,0.08c0.05,0.15,0.11,0.25,0.18,0.3
		c0.03,0.01,0.07,0.02,0.12,0.03c0.21-0.1,0.45-0.15,0.74-0.15c0.03,0,0.05,0.01,0.07,0.03c0.02,0.02,0.02,0.04,0.03,0.08
		c0,0.01-0.01,0.03-0.03,0.06L104.23,91.3z"/>
	<path class="st3" d="M79.61,96.73v3.04h-0.65l-0.38-1.38v1.38h-0.62v-3.04h0.62l0.41,1.37v-1.37H79.61 M76.89,98.68
		c-0.04-0.34-0.07-0.77-0.11-1.27c-0.07,0.58-0.12,1.01-0.14,1.27H76.89z M77.28,96.73l0.42,3.04h-0.76l-0.04-0.55h-0.27l-0.04,0.55
		h-0.77l0.38-3.04H77.28z M75.58,96.73v3.04h-0.74v-1.28h-0.22v1.28h-0.74v-3.04h0.74v1.09h0.22v-1.09H75.58z M73.47,96.73v2.03
		c0,0.23-0.01,0.39-0.02,0.48c-0.01,0.09-0.06,0.19-0.12,0.29c-0.07,0.1-0.16,0.17-0.27,0.22c-0.11,0.05-0.25,0.08-0.4,0.08
		c-0.17,0-0.32-0.03-0.45-0.09c-0.13-0.06-0.23-0.14-0.29-0.23c-0.06-0.1-0.1-0.2-0.11-0.3c-0.01-0.11-0.02-0.33-0.02-0.68v-1.8
		h0.74v2.28c0,0.13,0.01,0.22,0.02,0.25c0.01,0.04,0.04,0.06,0.08,0.06c0.05,0,0.08-0.02,0.09-0.06c0.01-0.04,0.02-0.14,0.02-0.29
		v-2.24H73.47z M71.51,96.73l-0.33,3.04h-0.92c-0.08-0.47-0.16-1-0.22-1.59c-0.03,0.25-0.1,0.78-0.21,1.59h-0.92l-0.33-3.04h0.72
		l0.08,1.06l0.08,1.02c0.03-0.53,0.09-1.22,0.2-2.08h0.77c0.01,0.09,0.04,0.42,0.08,1l0.08,1.15c0.04-0.73,0.11-1.45,0.2-2.16H71.51
		z"/>
	<path class="st3" d="M90.34,98.68c-0.04-0.34-0.08-0.77-0.11-1.27c-0.08,0.58-0.12,1.01-0.14,1.27H90.34 M90.73,96.73l0.43,3.04
		h-0.77l-0.04-0.55h-0.27l-0.04,0.55h-0.78l0.38-3.04H90.73z M89.01,96.73v3.04h-0.66l-0.39-1.38v1.38h-0.63v-3.04h0.63l0.42,1.37
		v-1.37H89.01z M86.9,96.73v3.04h-0.75v-3.04H86.9z M85.71,96.73v3.04h-0.75v-1.28h-0.22v1.28h-0.75v-3.04h0.75v1.09h0.22v-1.09
		H85.71z M83.59,98.05h-0.75v-0.53c0-0.15-0.01-0.25-0.02-0.29c-0.02-0.04-0.05-0.06-0.11-0.06c-0.06,0-0.1,0.02-0.12,0.07
		c-0.02,0.05-0.03,0.15-0.03,0.3v1.41c0,0.15,0.01,0.24,0.03,0.29c0.02,0.05,0.05,0.07,0.11,0.07c0.06,0,0.09-0.02,0.11-0.07
		c0.02-0.04,0.03-0.15,0.03-0.32v-0.38h0.75v0.12c0,0.31-0.02,0.54-0.06,0.67c-0.04,0.13-0.14,0.25-0.28,0.35
		c-0.14,0.1-0.32,0.15-0.53,0.15c-0.22,0-0.4-0.04-0.54-0.13c-0.14-0.08-0.24-0.2-0.28-0.35c-0.05-0.15-0.07-0.37-0.07-0.67V97.8
		c0-0.22,0.01-0.38,0.02-0.49c0.01-0.11,0.06-0.22,0.13-0.32c0.07-0.1,0.17-0.18,0.29-0.24c0.13-0.06,0.27-0.09,0.43-0.09
		c0.22,0,0.4,0.05,0.55,0.14c0.14,0.09,0.24,0.2,0.28,0.34c0.05,0.13,0.07,0.34,0.07,0.63V98.05z"/>
	<ellipse class="st4" cx="80.03" cy="75.16" rx="48.83" ry="32.13"/>
	<ellipse class="st5" cx="80.04" cy="75.25" rx="39.91" ry="31.69"/>
	<line class="st6" x1="53.08" y1="48.33" x2="106.81" y2="48.33"/>
	<line class="st7" x1="53.62" y1="102.22" x2="106.56" y2="102.22"/>
	<path class="st8" d="M34.32,108.41l-0.19,0.24l-1.81-1.38l0.19-0.24l0.12,0.09c0.1,0.08,0.22,0.09,0.35,0.05
		c0.09-0.03,0.21-0.1,0.35-0.23c0.1-0.09,0.32-0.35,0.67-0.8l4.53-5.79c0.35-0.45,0.56-0.74,0.63-0.87
		c0.07-0.13,0.11-0.25,0.12-0.38c0.01-0.13-0.04-0.23-0.13-0.3l-0.12-0.09l0.19-0.24l1.81,1.38l-0.19,0.24l-0.12-0.09
		c-0.1-0.08-0.22-0.09-0.35-0.05c-0.09,0.03-0.21,0.1-0.35,0.23c-0.1,0.09-0.32,0.36-0.67,0.8l-4.53,5.79
		c-0.35,0.45-0.56,0.74-0.63,0.87c-0.07,0.13-0.11,0.26-0.12,0.38c-0.01,0.13,0.03,0.23,0.13,0.3L34.32,108.41"/>
	<path class="st8" d="M45.52,102.82l-0.19,0.28c-0.18-0.03-0.43,0.09-0.76,0.35c-0.25,0.2-0.74,0.73-1.53,1.55l-5.65,5.85
		l-0.09-0.06l3.27-7.89c0.46-1.11,0.78-1.73,0.84-1.94c0.06-0.21,0.03-0.38-0.08-0.52l0.19-0.28l1.8,1.2l-0.19,0.28l-0.06-0.04
		c-0.16-0.11-0.31-0.13-0.44-0.06c-0.09,0.05-0.19,0.14-0.29,0.29c-0.06,0.09-0.12,0.2-0.19,0.34c-0.07,0.13-0.24,0.5-0.51,1.09
		l-2.6,5.64l3.77-4.05c0.46-0.49,0.76-0.82,0.9-1c0.14-0.17,0.26-0.33,0.35-0.46c0.1-0.15,0.18-0.29,0.22-0.43
		c0.05-0.14,0.06-0.25,0.05-0.35c-0.02-0.14-0.1-0.25-0.23-0.34l0.19-0.28L45.52,102.82"/>
	<path class="st8" d="M47.55,104.39l-2.26,3.67l0.08,0.04c0.22,0.13,0.8,0.75,1.35,0.26c0.34-0.31,0.19-0.25,0.65-0.86l0.29,0.08
		l-2.03,3.39l-0.3-0.12c0.33-0.49,0.29-0.34,0.43-0.73c0.13-0.39,0.16-0.48,0.13-0.66c-0.03-0.17-0.76-0.6-0.94-0.71l-1.6,2.66
		c-0.31,0.52-0.49,0.84-0.55,0.97c-0.05,0.13-0.08,0.24-0.07,0.34c0,0.1,0.06,0.19,0.17,0.25l0.23,0.13
		c0.36,0.21,0.77,0.17,1.23-0.11c0.46-0.28,0.59-0.29,1.19-1.08l0.28,0.29l-1.75,2.16l-3.33-1.95l0.15-0.26l0.13,0.07
		c0.11,0.07,0.23,0.07,0.36,0.01c0.09-0.04,0.19-0.13,0.31-0.27c0.09-0.1,0.27-0.38,0.56-0.86l3.73-6.22
		c0.26-0.43,0.41-0.69,0.46-0.8c0.08-0.17,0.12-0.32,0.12-0.44c0.01-0.17-0.05-0.29-0.18-0.37l-0.13-0.07l0.16-0.26l3.22,1.88
		l-1.16,2.31l-0.31-0.15c0.35-0.72,0.26-0.67,0.33-1.03c0.08-0.36,0.07-0.66-0.03-0.9c-0.05-0.15-0.23-0.3-0.52-0.47L47.55,104.39"
		/>
	<path class="st8" d="M51.24,106.33l-2.25,4.28l0.16,0.07c0.26,0.11,0.49,0.14,0.69,0.08c0.2-0.07,0.42-0.24,0.66-0.53
		c0.24-0.29,0.5-0.69,0.77-1.2c0.39-0.75,0.61-1.32,0.66-1.74c0.05-0.42-0.08-0.69-0.38-0.82L51.24,106.33 M48.72,111.12l-1.44,2.74
		c-0.28,0.53-0.44,0.87-0.49,1.01c-0.05,0.15-0.06,0.28-0.04,0.39c0.02,0.11,0.12,0.2,0.3,0.28l-0.14,0.27l-1.98-0.86l0.14-0.27
		c0.18,0.08,0.32,0.09,0.43,0.03c0.11-0.06,0.21-0.14,0.31-0.27c0.1-0.12,0.28-0.45,0.56-0.98l3.34-6.34
		c0.28-0.53,0.44-0.87,0.49-1.01c0.05-0.15,0.06-0.28,0.04-0.39c-0.02-0.11-0.12-0.2-0.3-0.28l0.14-0.27l1.8,0.78
		c0.47,0.2,0.77,0.44,0.9,0.69c0.13,0.26,0.15,0.64,0.05,1.14c-0.09,0.5-0.3,1.04-0.61,1.63c-0.38,0.72-0.8,1.27-1.25,1.65
		c-0.29,0.24-0.59,0.38-0.9,0.43l-0.81,3.71c-0.1,0.48-0.16,0.78-0.16,0.91c0,0.18,0.05,0.3,0.14,0.36l-0.14,0.27l-1.22-0.53l1.1-5
		L48.72,111.12z"/>
	<path class="st8" d="M56.66,107.68l-1.21,3.46l-0.13-0.04c0.25-0.88,0.35-1.63,0.3-2.23c-0.05-0.6-0.22-0.95-0.5-1.03
		c-0.22-0.07-0.44,0.02-0.67,0.26c-0.23,0.24-0.41,0.54-0.54,0.9c-0.08,0.23-0.13,0.44-0.15,0.63c-0.03,0.26-0.01,0.53,0.04,0.8
		c0.04,0.2,0.16,0.57,0.37,1.11c0.29,0.75,0.43,1.42,0.42,2.01c-0.01,0.58-0.15,1.21-0.39,1.9c-0.31,0.86-0.72,1.57-1.23,2.1
		c-0.51,0.53-0.98,0.74-1.42,0.6c-0.14-0.04-0.25-0.12-0.35-0.22c-0.1-0.11-0.21-0.28-0.32-0.52c-0.07-0.13-0.13-0.21-0.2-0.23
		c-0.06-0.02-0.13,0.01-0.23,0.1c-0.1,0.08-0.21,0.22-0.32,0.42l-0.12-0.04l1.41-3.91l0.12,0.04c-0.3,1.13-0.42,2.02-0.36,2.68
		c0.06,0.66,0.24,1.04,0.55,1.14c0.24,0.07,0.49-0.02,0.74-0.29c0.25-0.27,0.46-0.61,0.6-1.02c0.09-0.24,0.15-0.49,0.17-0.74
		c0.03-0.24,0.02-0.49-0.01-0.73c-0.04-0.24-0.14-0.57-0.3-0.99c-0.23-0.59-0.37-1.07-0.43-1.45c-0.06-0.38-0.06-0.79-0.01-1.21
		c0.05-0.43,0.16-0.89,0.34-1.37c0.3-0.82,0.68-1.49,1.14-1.99c0.46-0.5,0.89-0.69,1.27-0.57c0.14,0.04,0.26,0.12,0.37,0.25
		c0.08,0.09,0.16,0.24,0.24,0.45c0.09,0.21,0.16,0.32,0.21,0.34c0.06,0.02,0.11-0.01,0.18-0.08c0.06-0.07,0.16-0.26,0.3-0.56
		L56.66,107.68"/>
	<path class="st8" d="M63.75,109.84l-0.86,2.83l-0.12-0.03c0.13-0.67,0.19-1.16,0.2-1.46c0-0.31-0.04-0.56-0.14-0.77
		c-0.05-0.12-0.18-0.2-0.39-0.25l-0.33-0.08l-2.45,8.05c-0.16,0.53-0.25,0.87-0.27,1.01c-0.02,0.14,0,0.27,0.04,0.39
		c0.04,0.12,0.13,0.2,0.25,0.23l0.15,0.04l-0.09,0.28l-2.3-0.59l0.09-0.28l0.15,0.04c0.13,0.03,0.25,0,0.36-0.08
		c0.08-0.06,0.16-0.17,0.25-0.34c0.06-0.11,0.17-0.43,0.33-0.96l2.45-8.05l-0.32-0.08c-0.3-0.08-0.56,0.01-0.78,0.28
		c-0.31,0.37-0.61,0.93-0.9,1.69l-0.12-0.03l0.86-2.83L63.75,109.84"/>
	<path class="st8" d="M68.97,110.82l-0.05,0.3c-0.16,0.02-0.3,0.11-0.41,0.26c-0.15,0.21-0.44,0.79-0.86,1.75l-1.69,3.78l-0.46,2.62
		c-0.1,0.56-0.15,0.91-0.15,1.05c0,0.14,0.03,0.26,0.09,0.38c0.06,0.12,0.15,0.18,0.27,0.2l0.26,0.04l-0.05,0.29l-2.61-0.38
		l0.05-0.29l0.24,0.04c0.14,0.02,0.26-0.02,0.35-0.12c0.07-0.07,0.14-0.19,0.21-0.36c0.05-0.12,0.12-0.46,0.22-1l0.38-2.18
		l-0.28-4.8c-0.06-0.95-0.11-1.51-0.18-1.68c-0.06-0.18-0.16-0.28-0.31-0.3l0.05-0.3l2.23,0.32l-0.05,0.3l-0.1-0.01
		c-0.13-0.02-0.24,0.01-0.31,0.1c-0.07,0.08-0.11,0.17-0.13,0.28c-0.03,0.19-0.03,0.69,0.02,1.49l0.21,3.71l1.41-3.15
		c0.35-0.77,0.54-1.28,0.59-1.55c0.02-0.14,0.02-0.27-0.03-0.37c-0.05-0.14-0.18-0.24-0.39-0.3l0.05-0.3L68.97,110.82"/>
	<path class="st8" d="M73.89,112.07c-0.42-0.04-0.8,0.43-1.14,1.4c-0.28,0.8-0.51,1.98-0.69,3.51c-0.22,1.83-0.25,3.2-0.08,4.1
		c0.12,0.63,0.35,0.97,0.69,1c0.23,0.02,0.44-0.09,0.63-0.33c0.24-0.32,0.46-0.84,0.66-1.57c0.2-0.73,0.37-1.69,0.52-2.88
		c0.17-1.42,0.24-2.49,0.22-3.2c-0.03-0.72-0.11-1.23-0.25-1.54C74.3,112.26,74.12,112.09,73.89,112.07 M73.91,111.56
		c0.74,0.01,1.27,0.57,1.59,1.68c0.33,1.11,0.39,2.46,0.2,4.05c-0.16,1.36-0.48,2.54-0.94,3.54c-0.62,1.32-1.33,1.94-2.15,1.86
		c-0.82-0.09-1.38-0.8-1.67-2.16c-0.23-1.07-0.26-2.31-0.09-3.73c0.19-1.59,0.59-2.9,1.17-3.91
		C72.62,111.87,73.24,111.43,73.91,111.56z"/>
	<path class="st8" d="M77.5,112.59l-0.07,4.45l0.13,0c0.2,0,0.36-0.07,0.49-0.21c0.13-0.14,0.24-0.38,0.33-0.72
		c0.09-0.34,0.16-0.8,0.19-1.38l0.12,0l-0.09,5.44l-0.12,0c-0.02-1.03-0.13-1.71-0.31-2.04c-0.18-0.33-0.39-0.5-0.63-0.5l-0.13,0
		l-0.05,3.31c-0.01,0.55,0,0.9,0.02,1.04c0.02,0.14,0.07,0.26,0.14,0.36c0.07,0.11,0.17,0.16,0.3,0.16l0.15,0l0,0.29l-2.35-0.03
		l0-0.29l0.15,0c0.13,0,0.24-0.05,0.32-0.16c0.06-0.07,0.11-0.2,0.14-0.38c0.03-0.12,0.04-0.46,0.05-1.01l0.12-7.12
		c0.01-0.55,0-0.9-0.02-1.04c-0.02-0.14-0.07-0.26-0.14-0.36c-0.07-0.1-0.17-0.16-0.3-0.16l-0.15,0l0-0.3l3.79,0.06l-0.05,3.11
		l-0.14,0c-0.02-0.73-0.09-1.27-0.21-1.63c-0.12-0.35-0.3-0.6-0.54-0.75c-0.13-0.08-0.38-0.13-0.73-0.13L77.5,112.59"/>
	<path class="st8" d="M89.5,111.22l0.72,3.76L90.09,115c-0.29-0.96-0.61-1.68-0.99-2.15c-0.37-0.47-0.72-0.68-1.07-0.61
		c-0.28,0.05-0.51,0.29-0.67,0.73c-0.16,0.43-0.24,0.97-0.23,1.63c0.01,0.83,0.11,1.74,0.3,2.73c0.19,0.97,0.41,1.84,0.66,2.62
		c0.26,0.78,0.53,1.35,0.83,1.72c0.3,0.37,0.62,0.52,0.97,0.45c0.29-0.05,0.52-0.25,0.7-0.59c0.18-0.34,0.33-0.9,0.46-1.68
		l0.18,0.94c-0.13,0.68-0.31,1.19-0.53,1.53c-0.22,0.34-0.52,0.54-0.89,0.61c-0.49,0.09-0.96-0.06-1.43-0.46
		c-0.47-0.39-0.89-1.01-1.26-1.84c-0.37-0.83-0.65-1.74-0.84-2.72c-0.2-1.03-0.27-2.04-0.22-3.01c0.05-0.97,0.22-1.75,0.51-2.33
		c0.29-0.58,0.65-0.91,1.09-0.99c0.32-0.06,0.69,0.04,1.11,0.31c0.24,0.15,0.39,0.23,0.45,0.22c0.07-0.01,0.12-0.09,0.15-0.22
		c0.03-0.14,0.02-0.34-0.01-0.61L89.5,111.22"/>
	<path class="st8" d="M94.33,121.19l0.06,0.29l-2.24,0.46l-0.06-0.29l0.14-0.03c0.12-0.03,0.21-0.1,0.27-0.23
		c0.04-0.08,0.06-0.22,0.05-0.4c0-0.13-0.05-0.46-0.16-0.99l-1.36-6.99c-0.11-0.54-0.18-0.88-0.23-1.01
		c-0.05-0.13-0.12-0.24-0.21-0.33c-0.09-0.09-0.2-0.12-0.32-0.09l-0.14,0.03l-0.06-0.29l2.24-0.46l0.06,0.29l-0.14,0.03
		c-0.12,0.03-0.21,0.1-0.27,0.22c-0.04,0.09-0.06,0.22-0.06,0.4c0,0.13,0.05,0.46,0.16,0.99l1.36,6.99
		c0.11,0.54,0.18,0.88,0.23,1.01c0.05,0.13,0.12,0.24,0.21,0.33c0.09,0.09,0.2,0.12,0.32,0.1L94.33,121.19"/>
	<path class="st8" d="M122.35,98.06l4.89,7.03c0.26,0.37,0.42,0.59,0.5,0.67c0.08,0.07,0.15,0.12,0.22,0.14
		c0.1,0.03,0.2,0.01,0.31-0.07c0.34-0.24,0.42-0.67,0.25-1.3c-0.23-0.85-0.85-1.99-1.84-3.43c-0.8-1.16-1.53-2.02-2.18-2.6
		c-0.51-0.45-0.93-0.7-1.27-0.75C122.97,97.71,122.68,97.82,122.35,98.06 M126.69,107.65l-0.17-0.24l0.14-0.1
		c0.12-0.08,0.18-0.19,0.19-0.32c0.01-0.13-0.02-0.27-0.09-0.43c-0.05-0.11-0.23-0.39-0.55-0.86l-4.12-5.92
		c-0.32-0.46-0.53-0.74-0.64-0.84c-0.1-0.1-0.22-0.17-0.34-0.21c-0.13-0.04-0.25-0.02-0.37,0.06l-0.14,0.1l-0.17-0.25l1.85-1.29
		c0.49-0.34,0.99-0.47,1.5-0.39c0.62,0.1,1.27,0.45,1.97,1.04c0.7,0.6,1.36,1.35,2,2.27c0.44,0.63,0.8,1.25,1.08,1.85
		c0.28,0.6,0.46,1.12,0.56,1.57c0.09,0.45,0.12,0.85,0.07,1.2c-0.05,0.34-0.17,0.67-0.37,0.98c-0.09,0.14-0.26,0.3-0.53,0.49
		L126.69,107.65z"/>
	<path class="st8" d="M138.36,63.41l3.68-0.96l0.89,3.82l-0.28,0.09l-0.03-0.14c-0.03-0.12-0.11-0.21-0.23-0.25
		c-0.08-0.03-0.22-0.04-0.4-0.01c-0.13,0.01-0.45,0.1-0.97,0.26l-6.83,2.1c-0.53,0.16-0.86,0.28-0.99,0.34
		c-0.13,0.06-0.23,0.15-0.31,0.25c-0.08,0.1-0.11,0.21-0.08,0.33l0.03,0.14l-0.28,0.09l-0.54-2.3l0.28-0.09l0.04,0.19
		c0.03,0.13,0.1,0.21,0.23,0.25c0.09,0.03,0.22,0.04,0.4,0.02c0.13-0.01,0.45-0.1,0.97-0.26l6.61-2.03c0.53-0.16,0.87-0.28,1-0.35
		c0.14-0.07,0.24-0.15,0.29-0.25c0.03-0.07,0.03-0.2-0.02-0.4l-0.08-0.36c-0.05-0.23-0.19-0.39-0.42-0.48
		c-0.23-0.09-0.57-0.13-1.01-0.11c-0.44,0.02-1.09,0.1-1.93,0.25L138.36,63.41"/>
	<path class="st8" d="M29.33,53.35l-2.79-1.9c-0.46-0.31-0.76-0.5-0.89-0.55c-0.13-0.05-0.26-0.08-0.4-0.07
		c-0.14,0.01-0.24,0.07-0.32,0.19l-0.1,0.14l-0.24-0.17l1.51-2.21l0.24,0.17l-0.1,0.14c-0.08,0.12-0.1,0.25-0.06,0.39
		c0.02,0.1,0.1,0.21,0.23,0.34c0.09,0.09,0.36,0.3,0.81,0.61l5.92,4.04c0.46,0.31,0.76,0.5,0.89,0.55c0.13,0.06,0.26,0.08,0.4,0.07
		c0.13-0.01,0.24-0.08,0.32-0.19l0.1-0.14l0.25,0.17l-1.51,2.21l-0.25-0.17l0.1-0.14c0.08-0.12,0.11-0.25,0.06-0.39
		c-0.03-0.1-0.1-0.21-0.23-0.35c-0.09-0.1-0.36-0.3-0.81-0.6l-2.55-1.74l-1.02,1.49l2.55,1.74c0.46,0.31,0.76,0.5,0.89,0.56
		c0.13,0.06,0.26,0.08,0.4,0.07c0.13-0.01,0.24-0.08,0.32-0.2l0.09-0.14l0.25,0.17l-1.51,2.21l-0.25-0.17l0.09-0.14
		c0.09-0.12,0.11-0.25,0.06-0.39c-0.03-0.1-0.1-0.21-0.23-0.35c-0.09-0.09-0.36-0.3-0.81-0.6l-5.92-4.04
		c-0.46-0.31-0.76-0.5-0.89-0.56c-0.13-0.06-0.26-0.08-0.4-0.07c-0.14,0.01-0.24,0.08-0.33,0.19l-0.09,0.14l-0.24-0.17l1.51-2.21
		l0.24,0.17l-0.09,0.14c-0.09,0.12-0.11,0.26-0.06,0.39c0.02,0.1,0.1,0.21,0.23,0.35c0.09,0.09,0.36,0.3,0.81,0.6l2.79,1.9
		L29.33,53.35"/>
	<path class="st8" d="M31.71,59.75l-1.48,2.22l-0.25-0.17l0.07-0.11c0.11-0.17,0.15-0.31,0.12-0.42c-0.03-0.11-0.11-0.23-0.22-0.34
		c-0.11-0.11-0.44-0.35-0.96-0.7l-4.51-3.01c-0.83-0.55-1.39-0.88-1.7-1.01c-0.31-0.12-0.59-0.17-0.86-0.16
		c-0.27,0.02-0.46,0.12-0.6,0.33c-0.16,0.23-0.18,0.5-0.06,0.82c0.12,0.31,0.34,0.64,0.68,0.99c0.34,0.34,1,0.84,1.98,1.49l3.76,2.5
		c0.41,0.28,0.72,0.45,0.92,0.53c0.2,0.08,0.36,0.11,0.47,0.09c0.17-0.03,0.31-0.13,0.42-0.3l0.25,0.17l-0.99,1.49L28.51,64
		l0.06-0.09c0.08-0.12,0.1-0.25,0.05-0.4c-0.05-0.15-0.17-0.31-0.35-0.49c-0.13-0.12-0.38-0.31-0.75-0.56L24,60.13
		c-1.08-0.72-1.84-1.28-2.28-1.66c-0.44-0.39-0.77-0.84-1-1.37c-0.23-0.53-0.2-1.01,0.1-1.46c0.25-0.37,0.55-0.59,0.89-0.65
		c0.47-0.08,0.98-0.03,1.5,0.16c0.53,0.19,1.18,0.54,1.94,1.05l4.51,3.01c0.53,0.35,0.87,0.56,1.02,0.62
		c0.15,0.06,0.28,0.08,0.4,0.06c0.12-0.01,0.24-0.12,0.36-0.3L31.71,59.75"/>
	<path class="st8" d="M22.41,62.86l3.34,0.67l-2.71-1.84L22.41,62.86 M21.71,62.71l0.74-1.59l-1.31-0.97
		c-0.3-0.22-0.37-0.38-0.58-0.48c-0.28-0.14-0.51-0.18-0.69-0.14c-0.1,0.02-0.22,0.14-0.36,0.35l-0.27-0.13l0.61-1.49l0.27,0.13
		c-0.01,0.19,0.09,0.39,0.29,0.61c0.2,0.22,0.46,0.59,1.17,1.11l7.3,5.32l-0.12,0.23l-8.75-2.36c-0.85-0.23-1.39-0.33-1.64-0.32
		c-0.19,0-0.49,0.07-0.57,0.19l-0.27-0.13l1.06-2.17l0.27,0.13l-0.04,0.09c-0.07,0.17-0.07,0.32,0.01,0.45
		c0.06,0.09,0.16,0.17,0.31,0.24c0.09,0.04,0.18,0.08,0.28,0.11c0.05,0.02,0.26,0.03,0.6,0.17L21.71,62.71z"/>
	<path class="st8" d="M27.48,69.98l-9.71-4.48l-0.16,0.86c-0.07,0.41-0.07,0.7,0.03,0.89c0.14,0.3,0.45,0.59,0.93,0.87
		c0.48,0.28,1.14,0.54,1.99,0.77l-0.02,0.13l-3.87-0.88l0.75-4.14l9.73,4.49l0.12-0.67c0.05-0.26,0.06-0.43,0.04-0.52
		c-0.04-0.17-0.15-0.34-0.33-0.51c-0.18-0.17-0.43-0.33-0.75-0.49c-0.32-0.15-0.74-0.3-1.25-0.44l0.02-0.12l3.14,0.69L27.48,69.98"
		/>
	<path class="st8" d="M21.31,71.55l-3.38-0.4c-0.56-0.07-0.91-0.1-1.05-0.09c-0.14,0.01-0.27,0.05-0.38,0.12
		c-0.12,0.07-0.18,0.17-0.19,0.3l-0.02,0.16l-0.3-0.04l0.27-2.51l0.3,0.04l-0.02,0.16c-0.01,0.14,0.03,0.26,0.13,0.36
		c0.07,0.07,0.19,0.13,0.37,0.19c0.12,0.04,0.46,0.1,1.01,0.16l7.18,0.86c0.56,0.07,0.91,0.1,1.05,0.09
		c0.14-0.01,0.27-0.05,0.38-0.11c0.11-0.07,0.18-0.17,0.19-0.3l0.02-0.16l0.3,0.04l-0.27,2.51l-0.3-0.04l0.02-0.16
		c0.01-0.14-0.03-0.26-0.13-0.36c-0.07-0.07-0.19-0.13-0.37-0.19c-0.13-0.04-0.46-0.09-1.01-0.16l-3.09-0.37l-0.18,1.7l3.09,0.37
		c0.56,0.07,0.91,0.1,1.05,0.09c0.14-0.01,0.27-0.05,0.38-0.12c0.11-0.07,0.18-0.17,0.19-0.3l0.02-0.16l0.3,0.04l-0.27,2.51
		l-0.3-0.04l0.02-0.16c0.02-0.14-0.03-0.26-0.13-0.36c-0.07-0.07-0.19-0.13-0.37-0.19c-0.13-0.04-0.46-0.09-1.01-0.16l-7.18-0.86
		c-0.56-0.07-0.91-0.1-1.05-0.09c-0.14,0.01-0.27,0.05-0.38,0.12c-0.12,0.07-0.18,0.17-0.19,0.3l-0.02,0.16l-0.3-0.04l0.27-2.51
		l0.3,0.04l-0.02,0.16c-0.02,0.14,0.03,0.26,0.13,0.36c0.07,0.07,0.19,0.13,0.37,0.19c0.12,0.04,0.46,0.09,1.01,0.16l3.38,0.4
		L21.31,71.55"/>
	<path class="st8" d="M26.42,77.77c-0.04-0.42-0.58-0.7-1.64-0.86c-0.86-0.13-2.09-0.15-3.68-0.06c-1.89,0.1-3.27,0.32-4.15,0.64
		c-0.61,0.22-0.91,0.51-0.87,0.85c0.02,0.23,0.17,0.41,0.46,0.55c0.37,0.18,0.94,0.3,1.71,0.37c0.77,0.07,1.77,0.07,3,0
		c1.46-0.08,2.55-0.2,3.27-0.35c0.72-0.15,1.22-0.32,1.5-0.51C26.31,78.21,26.44,78,26.42,77.77 M26.93,77.7
		c0.13,0.72-0.33,1.33-1.38,1.85c-1.05,0.51-2.4,0.81-4.04,0.9c-1.4,0.08-2.65-0.02-3.75-0.3c-1.45-0.37-2.22-0.96-2.29-1.77
		c-0.07-0.82,0.54-1.48,1.85-2.01c1.03-0.41,2.28-0.66,3.74-0.74c1.64-0.09,3.03,0.06,4.17,0.46C26.37,76.5,26.94,77.03,26.93,77.7z
		"/>
	<path class="st8" d="M27.31,81.07l-6.05,3.9l4.57-1.02c0.64-0.14,1.06-0.28,1.26-0.42c0.28-0.18,0.38-0.41,0.31-0.68l0.29-0.07
		l0.36,1.63l-0.29,0.07c-0.1-0.2-0.21-0.32-0.31-0.37c-0.11-0.05-0.27-0.07-0.48-0.07c-0.21,0.01-0.57,0.07-1.07,0.18l-8.84,1.98
		l-0.03-0.12l8.11-5.31l-6.75,1.51c-0.61,0.14-1.01,0.29-1.19,0.47c-0.19,0.18-0.26,0.35-0.22,0.52l0.03,0.12l-0.29,0.06l-0.39-1.75
		l0.29-0.06c0.07,0.27,0.23,0.43,0.49,0.49c0.26,0.05,0.67,0.02,1.23-0.11l7.5-1.67l0.26-0.17c0.26-0.17,0.42-0.3,0.49-0.4
		c0.07-0.1,0.09-0.23,0.07-0.38l0.29-0.07L27.31,81.07"/>
	<path class="st8" d="M29.58,87.48l-3.52,1.58l-0.04-0.11c0.91-0.57,1.56-1.11,1.96-1.61c0.39-0.5,0.53-0.91,0.4-1.24
		c-0.12-0.31-0.43-0.48-0.93-0.5c-0.5-0.02-1.14,0.1-1.93,0.35c-0.79,0.25-1.58,0.56-2.37,0.91c-0.96,0.43-1.78,0.86-2.47,1.28
		c-0.69,0.42-1.16,0.81-1.42,1.17c-0.26,0.36-0.33,0.69-0.22,0.98c0.04,0.1,0.1,0.19,0.2,0.27c0.09,0.08,0.21,0.16,0.35,0.23
		l3.47-1.34c0.4-0.15,0.64-0.3,0.75-0.38c0.11-0.07,0.19-0.17,0.26-0.28c0.07-0.11,0.08-0.22,0.04-0.32l-0.04-0.11l0.27-0.12
		l0.7,1.85l-0.27,0.12c-0.08-0.14-0.18-0.23-0.28-0.25c-0.1-0.03-0.25-0.01-0.43,0.03c-0.1,0.02-0.33,0.12-0.7,0.28l-3.38,1.52
		c-0.39-0.14-0.71-0.32-0.97-0.54c-0.26-0.22-0.45-0.49-0.57-0.8c-0.15-0.4-0.15-0.78,0.01-1.16c0.16-0.38,0.41-0.76,0.75-1.15
		c0.34-0.39,0.76-0.76,1.24-1.11c0.62-0.45,1.36-0.86,2.2-1.24c1.5-0.68,2.86-1.03,4.07-1.05c1.21-0.02,1.94,0.3,2.2,0.97
		c0.08,0.21,0.11,0.41,0.1,0.61c-0.01,0.11-0.06,0.31-0.17,0.59c-0.11,0.28-0.15,0.45-0.14,0.48c0.02,0.06,0.09,0.09,0.21,0.09
		c0.12,0,0.33-0.04,0.62-0.12L29.58,87.48"/>
	<path class="st8" d="M31.4,89.98L33,92.12l-0.24,0.18l-0.08-0.11c-0.12-0.16-0.24-0.24-0.35-0.25c-0.12-0.01-0.25,0.02-0.39,0.09
		c-0.15,0.07-0.47,0.29-0.98,0.67l-4.35,3.24c-0.8,0.59-1.3,1.01-1.52,1.26c-0.22,0.25-0.36,0.5-0.44,0.75
		c-0.07,0.25-0.04,0.48,0.11,0.68c0.17,0.22,0.42,0.33,0.75,0.33c0.33,0,0.72-0.11,1.16-0.31c0.44-0.21,1.13-0.66,2.07-1.36
		l3.62-2.7c0.4-0.3,0.67-0.53,0.81-0.69c0.14-0.17,0.22-0.3,0.24-0.41c0.03-0.17-0.01-0.33-0.14-0.5l0.24-0.18l1.07,1.43l-0.24,0.18
		l-0.06-0.09c-0.09-0.12-0.21-0.18-0.37-0.18c-0.16,0-0.35,0.05-0.58,0.17c-0.16,0.08-0.42,0.25-0.78,0.52l-3.37,2.51
		c-1.04,0.78-1.82,1.31-2.33,1.59c-0.51,0.28-1.05,0.44-1.63,0.48c-0.57,0.04-1.02-0.15-1.34-0.58c-0.27-0.36-0.37-0.71-0.31-1.06
		c0.08-0.47,0.3-0.93,0.65-1.36c0.36-0.44,0.9-0.93,1.64-1.48l4.35-3.24c0.51-0.38,0.82-0.63,0.92-0.75
		c0.11-0.12,0.17-0.24,0.19-0.36c0.03-0.12-0.03-0.27-0.16-0.44L31.4,89.98"/>
	<path class="st8" d="M36.43,95.7l-3.29,6.4l3.45-3.17c0.48-0.44,0.78-0.77,0.89-0.99c0.15-0.3,0.12-0.55-0.07-0.75l0.22-0.2
		l1.13,1.23l-0.22,0.2c-0.19-0.12-0.34-0.17-0.46-0.16c-0.12,0.01-0.27,0.07-0.45,0.18c-0.18,0.11-0.46,0.34-0.84,0.69l-6.67,6.13
		l-0.09-0.09l4.36-8.65l-5.09,4.68c-0.46,0.42-0.73,0.76-0.8,1c-0.07,0.25-0.05,0.43,0.06,0.56l0.08,0.09l-0.22,0.2l-1.21-1.32
		l0.22-0.2c0.19,0.2,0.41,0.26,0.66,0.18c0.25-0.08,0.59-0.32,1.01-0.71l5.66-5.2l0.14-0.28c0.14-0.27,0.22-0.47,0.23-0.59
		c0.01-0.12-0.03-0.24-0.13-0.36l0.22-0.2L36.43,95.7"/>
	<path class="st8" d="M55.92,118.71l-0.09,0.28l-2.18-0.66l0.09-0.28l0.14,0.04c0.12,0.04,0.24,0.01,0.35-0.07
		c0.08-0.05,0.16-0.16,0.24-0.33c0.06-0.11,0.18-0.43,0.35-0.95l2.27-6.8c0.18-0.53,0.27-0.86,0.3-1c0.02-0.14,0.02-0.27-0.02-0.39
		c-0.04-0.12-0.11-0.2-0.23-0.23L57,108.28l0.09-0.28l2.18,0.66l-0.09,0.28l-0.14-0.04c-0.12-0.04-0.24-0.01-0.34,0.07
		c-0.08,0.06-0.16,0.16-0.25,0.33c-0.06,0.12-0.18,0.43-0.35,0.95l-2.27,6.8c-0.18,0.53-0.27,0.86-0.3,1
		c-0.02,0.14-0.01,0.27,0.02,0.39c0.04,0.12,0.11,0.2,0.23,0.23L55.92,118.71"/>
	<path class="st8" d="M84.57,111.54l0.7,3.61l-0.15,0.03c-0.23-0.89-0.53-1.59-0.9-2.09c-0.37-0.5-0.7-0.72-1.01-0.65
		c-0.24,0.05-0.4,0.23-0.49,0.55c-0.09,0.32-0.1,0.67-0.03,1.05c0.04,0.24,0.11,0.45,0.19,0.63c0.11,0.24,0.27,0.46,0.46,0.68
		c0.14,0.16,0.45,0.42,0.93,0.78c0.67,0.51,1.16,1.03,1.45,1.54c0.29,0.52,0.51,1.13,0.64,1.85c0.16,0.91,0.15,1.72-0.04,2.44
		c-0.19,0.72-0.53,1.13-1.01,1.22c-0.15,0.03-0.3,0.02-0.45-0.02c-0.15-0.04-0.34-0.14-0.58-0.29c-0.13-0.08-0.23-0.12-0.31-0.1
		c-0.06,0.01-0.12,0.08-0.16,0.2c-0.05,0.12-0.07,0.3-0.08,0.52l-0.13,0.03l-0.74-4.1l0.13-0.03c0.31,1.13,0.67,1.97,1.08,2.52
		c0.4,0.55,0.78,0.79,1.12,0.72c0.26-0.05,0.44-0.26,0.54-0.62c0.1-0.36,0.11-0.75,0.03-1.19c-0.05-0.26-0.12-0.5-0.23-0.73
		c-0.1-0.23-0.23-0.44-0.4-0.63c-0.16-0.19-0.43-0.43-0.8-0.71c-0.52-0.4-0.91-0.75-1.16-1.05c-0.25-0.3-0.47-0.66-0.65-1.06
		c-0.18-0.4-0.31-0.86-0.41-1.36c-0.16-0.86-0.15-1.63,0.02-2.3c0.17-0.66,0.47-1.04,0.89-1.13c0.16-0.03,0.31-0.02,0.47,0.03
		c0.12,0.04,0.28,0.13,0.47,0.28c0.19,0.14,0.32,0.21,0.38,0.19c0.06-0.01,0.1-0.07,0.12-0.16c0.02-0.09,0.02-0.3-0.01-0.64
		L84.57,111.54"/>
	<path class="st8" d="M94.74,110.88l0.85,4.23l0.09-0.02c0.25-0.06,1.1,0,1.16-0.73c0.04-0.46-0.03-0.31-0.11-1.07l0.26-0.13
		l0.83,3.87l-0.3,0.12c-0.09-0.58-0.02-0.45-0.18-0.82c-0.17-0.37-0.21-0.46-0.35-0.57c-0.14-0.11-0.97,0.07-1.17,0.12l0.65,3.04
		c0.13,0.59,0.21,0.95,0.26,1.08c0.05,0.13,0.11,0.23,0.18,0.3c0.07,0.07,0.17,0.09,0.3,0.07l0.26-0.06
		c0.41-0.09,0.68-0.4,0.83-0.92c0.15-0.52,0.23-0.62,0.13-1.6l0.4,0.02l0.19,2.77l-3.76,0.85l-0.06-0.29l0.14-0.03
		c0.13-0.03,0.22-0.11,0.27-0.24c0.04-0.09,0.06-0.22,0.05-0.41c0-0.13-0.06-0.47-0.18-1.01l-1.51-7.09
		c-0.1-0.49-0.17-0.79-0.21-0.89c-0.06-0.18-0.13-0.31-0.21-0.4c-0.11-0.13-0.24-0.18-0.38-0.15l-0.14,0.03l-0.06-0.3l3.64-0.82
		l0.73,2.48l-0.33,0.1c-0.23-0.77-0.27-0.67-0.46-0.98c-0.18-0.31-0.4-0.53-0.64-0.64c-0.14-0.07-0.37-0.07-0.7,0.01L94.74,110.88"
		/>
	<path class="st8" d="M98.76,109.41l4.44,5.78l-1.37-4.49c-0.19-0.63-0.36-1.04-0.51-1.23c-0.21-0.26-0.45-0.35-0.73-0.26
		l-0.09-0.29l1.65-0.47l0.09,0.29c-0.2,0.12-0.31,0.23-0.36,0.34c-0.05,0.11-0.06,0.27-0.04,0.49c0.02,0.21,0.11,0.57,0.26,1.06
		l2.65,8.69l-0.13,0.04l-6.03-7.73l2.02,6.64c0.18,0.6,0.37,0.99,0.57,1.16c0.2,0.18,0.38,0.24,0.55,0.19l0.12-0.03l0.09,0.28
		l-1.78,0.5l-0.09-0.28c0.27-0.08,0.43-0.26,0.47-0.52c0.04-0.26-0.03-0.67-0.2-1.22l-2.24-7.37l-0.19-0.25
		c-0.19-0.25-0.34-0.4-0.45-0.47c-0.11-0.06-0.24-0.08-0.39-0.05l-0.09-0.29L98.76,109.41"/>
	<path class="st8" d="M106.03,107.03l1.18,3.64l-0.13,0.04c-0.4-0.92-0.82-1.59-1.24-2.02c-0.42-0.42-0.8-0.58-1.13-0.48
		c-0.28,0.09-0.47,0.36-0.58,0.81c-0.11,0.45-0.12,1-0.03,1.64c0.12,0.82,0.33,1.71,0.64,2.67c0.3,0.94,0.63,1.78,0.98,2.52
		c0.35,0.74,0.7,1.28,1.04,1.6c0.34,0.33,0.68,0.44,1.02,0.33c0.28-0.09,0.49-0.31,0.62-0.68c0.14-0.36,0.22-0.94,0.25-1.73
		l0.29,0.91c-0.05,0.69-0.16,1.22-0.34,1.58c-0.18,0.36-0.45,0.6-0.81,0.71c-0.47,0.15-0.96,0.06-1.48-0.28
		c-0.51-0.33-1-0.89-1.48-1.67c-0.47-0.78-0.86-1.65-1.17-2.6c-0.32-1-0.52-1.99-0.59-2.96c-0.07-0.97,0-1.76,0.22-2.37
		c0.21-0.62,0.53-0.99,0.96-1.12c0.31-0.1,0.69-0.04,1.14,0.17c0.26,0.12,0.42,0.18,0.47,0.16c0.07-0.02,0.11-0.1,0.12-0.24
		c0.01-0.14-0.02-0.34-0.09-0.61L106.03,107.03"/>
	<path class="st8" d="M108.21,106.94l1.57,4.02l0.08-0.03c0.23-0.1,1.09-0.19,1.02-0.92c-0.04-0.46-0.08-0.3-0.3-1.03l0.24-0.18
		l1.49,3.66l-0.28,0.17c-0.19-0.56-0.1-0.44-0.32-0.78c-0.23-0.34-0.29-0.42-0.44-0.5c-0.15-0.08-0.94,0.24-1.13,0.32l1.17,2.88
		c0.23,0.56,0.38,0.9,0.45,1.02c0.07,0.12,0.15,0.21,0.23,0.26c0.09,0.06,0.19,0.06,0.3,0.01l0.25-0.1c0.38-0.16,0.6-0.51,0.65-1.05
		c0.05-0.54,0.12-0.65-0.15-1.59l0.4-0.05l0.67,2.69l-3.55,1.49l-0.11-0.28l0.14-0.06c0.12-0.05,0.19-0.14,0.22-0.28
		c0.02-0.09,0.02-0.23-0.03-0.41c-0.03-0.13-0.14-0.45-0.35-0.96l-2.73-6.72c-0.19-0.46-0.31-0.74-0.36-0.84
		c-0.09-0.17-0.18-0.29-0.28-0.36c-0.13-0.11-0.27-0.13-0.4-0.08l-0.14,0.06l-0.11-0.28l3.44-1.44l1.15,2.31l-0.31,0.16
		c-0.36-0.71-0.39-0.61-0.62-0.89c-0.24-0.28-0.48-0.45-0.74-0.52c-0.15-0.05-0.38,0-0.69,0.13L108.21,106.94"/>
	<path class="st8" d="M117.84,108.78l-2.35-2.47l1.17,3.06L117.84,108.78 M118.33,109.3l-1.52,0.87l0.52,1.55
		c0.12,0.35,0.09,0.52,0.2,0.72c0.16,0.27,0.32,0.44,0.48,0.51c0.1,0.04,0.26,0.01,0.5-0.08l0.15,0.26l-1.36,0.87l-0.15-0.26
		c0.12-0.15,0.15-0.37,0.11-0.67c-0.04-0.3-0.04-0.75-0.33-1.58l-2.93-8.54l0.23-0.12l5.81,6.95c0.56,0.67,0.95,1.07,1.16,1.2
		c0.15,0.1,0.44,0.22,0.57,0.17l0.15,0.26l-2.11,1.18l-0.15-0.26l0.08-0.05c0.16-0.1,0.24-0.23,0.24-0.37c0-0.1-0.04-0.23-0.12-0.37
		c-0.05-0.09-0.11-0.17-0.17-0.25c-0.03-0.04-0.2-0.17-0.4-0.48L118.33,109.3z"/>
	<path class="st8" d="M117.37,101.08l6.04,4.08l-2.71-3.83c-0.38-0.53-0.67-0.87-0.88-1.01c-0.28-0.18-0.54-0.19-0.77-0.02
		l-0.17-0.24l1.42-0.97l0.17,0.24c-0.15,0.17-0.23,0.32-0.23,0.43c-0.01,0.12,0.03,0.28,0.12,0.47c0.09,0.2,0.28,0.51,0.58,0.93
		l5.25,7.42l-0.11,0.07l-8.16-5.44l4.01,5.66c0.36,0.51,0.66,0.82,0.9,0.92c0.24,0.11,0.43,0.11,0.58,0.01l0.1-0.07l0.17,0.24
		l-1.53,1.04l-0.17-0.24c0.23-0.17,0.33-0.38,0.28-0.64c-0.05-0.26-0.24-0.63-0.57-1.1l-4.45-6.29l-0.26-0.18
		c-0.26-0.17-0.45-0.27-0.57-0.3c-0.12-0.03-0.25,0-0.39,0.08l-0.17-0.24L117.37,101.08"/>
	<path class="st8" d="M127.82,90.92l2.34,1.8l-0.07,0.1c-0.58-0.36-1.02-0.59-1.3-0.7c-0.29-0.11-0.54-0.16-0.77-0.14
		c-0.13,0.01-0.25,0.1-0.37,0.28l-0.19,0.28l6.68,5.12c0.44,0.34,0.73,0.54,0.85,0.61c0.13,0.06,0.25,0.1,0.38,0.1
		c0.13,0,0.23-0.05,0.3-0.15l0.09-0.12l0.24,0.18l-1.37,1.95l-0.24-0.18l0.09-0.12c0.08-0.11,0.09-0.23,0.05-0.36
		c-0.03-0.09-0.1-0.21-0.23-0.35c-0.09-0.1-0.35-0.31-0.78-0.65l-6.68-5.12l-0.19,0.27c-0.18,0.25-0.18,0.53-0.01,0.83
		c0.23,0.42,0.65,0.9,1.26,1.43l-0.07,0.1l-2.34-1.8L127.82,90.92"/>
	<path class="st8" d="M129.45,89.54l3.64,2.31l0.05-0.08c0.13-0.22,0.76-0.8,0.28-1.34c-0.3-0.34-0.24-0.2-0.85-0.66l0.09-0.28
		l3.36,2.08l-0.12,0.3c-0.48-0.34-0.34-0.3-0.72-0.44c-0.39-0.14-0.48-0.17-0.66-0.14c-0.17,0.02-0.61,0.75-0.72,0.93l2.64,1.63
		c0.52,0.32,0.84,0.51,0.96,0.56c0.13,0.05,0.24,0.08,0.34,0.08c0.1,0,0.19-0.06,0.25-0.17l0.14-0.23c0.21-0.36,0.18-0.77-0.09-1.23
		c-0.27-0.46-0.29-0.59-1.06-1.2l0.3-0.27l2.13,1.77l-1.99,3.3l-0.26-0.16l0.08-0.13c0.07-0.11,0.07-0.23,0.01-0.36
		c-0.03-0.09-0.12-0.19-0.27-0.32c-0.1-0.09-0.38-0.28-0.85-0.57l-6.17-3.81c-0.43-0.26-0.69-0.42-0.79-0.47
		c-0.17-0.08-0.32-0.12-0.44-0.13c-0.17-0.01-0.3,0.05-0.37,0.17l-0.08,0.13l-0.26-0.16l1.92-3.2l2.29,1.19l-0.15,0.31
		c-0.71-0.36-0.67-0.26-1.03-0.35c-0.35-0.08-0.66-0.08-0.9,0.02c-0.15,0.05-0.31,0.22-0.48,0.51L129.45,89.54"/>
	<path class="st8" d="M131.5,84.11l3.65,1.14l-0.04,0.13c-0.98-0.2-1.77-0.25-2.36-0.15c-0.59,0.1-0.94,0.32-1.05,0.65
		c-0.09,0.28,0.02,0.59,0.32,0.94c0.31,0.35,0.75,0.67,1.32,0.97c0.74,0.38,1.59,0.72,2.55,1.02c0.94,0.29,1.82,0.51,2.62,0.66
		c0.81,0.14,1.44,0.17,1.91,0.08c0.47-0.09,0.75-0.3,0.86-0.64c0.09-0.28,0.03-0.58-0.19-0.9c-0.22-0.32-0.64-0.72-1.26-1.2
		l0.91,0.28c0.54,0.44,0.9,0.84,1.09,1.19c0.19,0.36,0.23,0.71,0.12,1.07c-0.15,0.47-0.51,0.82-1.08,1.04
		c-0.57,0.22-1.31,0.3-2.21,0.24c-0.91-0.07-1.84-0.25-2.79-0.55c-1.01-0.31-1.92-0.72-2.75-1.23c-0.83-0.5-1.44-1.02-1.81-1.55
		c-0.38-0.53-0.5-1.01-0.36-1.43c0.1-0.31,0.36-0.59,0.8-0.83c0.25-0.14,0.39-0.24,0.4-0.29c0.02-0.07-0.02-0.15-0.13-0.24
		c-0.11-0.09-0.29-0.18-0.55-0.28L131.5,84.11"/>
	<path class="st8" d="M137.64,83.29l3.31,0.76c0.55,0.13,0.89,0.19,1.04,0.2c0.14,0,0.27-0.02,0.39-0.07
		c0.12-0.05,0.2-0.15,0.23-0.28l0.03-0.16l0.29,0.07l-0.54,2.47l-0.29-0.07l0.03-0.16c0.03-0.14,0-0.26-0.09-0.37
		c-0.06-0.08-0.18-0.15-0.35-0.23c-0.12-0.05-0.45-0.14-0.99-0.27l-7.04-1.62c-0.55-0.13-0.89-0.19-1.04-0.2
		c-0.14-0.01-0.27,0.02-0.39,0.07c-0.12,0.05-0.19,0.15-0.22,0.28l-0.03,0.16l-0.29-0.07l0.54-2.47l0.29,0.07l-0.03,0.16
		c-0.03,0.14,0,0.26,0.09,0.37c0.06,0.08,0.18,0.15,0.35,0.23c0.12,0.06,0.45,0.14,0.99,0.27l3.03,0.7l0.36-1.67l-3.03-0.7
		c-0.55-0.13-0.89-0.19-1.04-0.2c-0.14-0.01-0.27,0.02-0.39,0.07c-0.12,0.06-0.19,0.15-0.22,0.28l-0.03,0.15L132.3,81l0.54-2.47
		l0.29,0.07l-0.03,0.15c-0.03,0.14,0,0.26,0.09,0.37c0.06,0.08,0.18,0.15,0.35,0.23c0.12,0.05,0.45,0.14,0.99,0.27l7.04,1.62
		c0.55,0.13,0.89,0.19,1.04,0.2c0.14,0.01,0.27-0.02,0.39-0.07c0.12-0.06,0.2-0.15,0.23-0.28l0.03-0.15l0.29,0.07l-0.54,2.47
		l-0.29-0.07l0.03-0.15c0.03-0.14,0-0.26-0.09-0.37c-0.06-0.08-0.18-0.15-0.35-0.23c-0.12-0.05-0.45-0.14-0.99-0.27L138,81.62
		L137.64,83.29"/>
	<path class="st8" d="M133.03,76.59l6.92-2.3l-4.69-0.19c-0.65-0.03-1.1,0-1.33,0.08c-0.32,0.11-0.48,0.31-0.49,0.6l-0.3-0.01
		l0.1-1.72l0.3,0.01c0.04,0.22,0.11,0.37,0.2,0.45c0.09,0.08,0.24,0.14,0.45,0.19c0.21,0.05,0.57,0.09,1.09,0.11l9.08,0.36
		l-0.01,0.13l-9.29,3.15l6.93,0.28c0.63,0.02,1.05-0.03,1.28-0.15c0.23-0.13,0.35-0.28,0.36-0.46l0.01-0.12l0.3,0.01l-0.11,1.84
		l-0.3-0.01c0.01-0.29-0.1-0.49-0.34-0.61c-0.23-0.12-0.64-0.19-1.22-0.22l-7.7-0.31l-0.3,0.1c-0.29,0.1-0.49,0.19-0.59,0.27
		c-0.1,0.08-0.15,0.2-0.17,0.36l-0.3-0.01L133.03,76.59"/>
	<path class="st8" d="M133.33,71.2c0.06,0.42,0.62,0.67,1.68,0.75c0.86,0.07,2.08,0,3.65-0.2c1.87-0.24,3.22-0.55,4.07-0.94
		c0.6-0.27,0.87-0.58,0.82-0.92c-0.03-0.23-0.2-0.4-0.49-0.53c-0.37-0.15-0.95-0.23-1.72-0.25c-0.77-0.01-1.76,0.06-2.98,0.21
		c-1.45,0.18-2.52,0.38-3.22,0.58c-0.7,0.2-1.19,0.41-1.46,0.62C133.41,70.76,133.29,70.98,133.33,71.2 M132.82,71.31
		c-0.18-0.72,0.25-1.37,1.26-1.96c1.01-0.59,2.33-0.99,3.95-1.2c1.39-0.18,2.63-0.16,3.74,0.04c1.47,0.27,2.26,0.81,2.38,1.63
		c0.12,0.82-0.45,1.53-1.72,2.15c-1,0.49-2.22,0.82-3.67,1.01c-1.62,0.21-3.01,0.15-4.16-0.17
		C133.45,72.49,132.85,71.99,132.82,71.31z"/>
	<path class="st8" d="M127.33,58.65l3.29-2.19l0.07,0.1c-0.82,0.72-1.38,1.37-1.69,1.93c-0.31,0.56-0.37,0.99-0.18,1.29
		c0.18,0.29,0.53,0.39,1.04,0.32c0.51-0.07,1.14-0.3,1.89-0.69c0.75-0.39,1.5-0.83,2.24-1.32c0.89-0.6,1.65-1.16,2.27-1.7
		c0.62-0.53,1.03-1,1.22-1.41c0.2-0.4,0.21-0.74,0.04-1c-0.06-0.09-0.14-0.17-0.25-0.23c-0.11-0.07-0.24-0.12-0.4-0.16l-3.28,1.94
		c-0.38,0.22-0.6,0.41-0.69,0.51c-0.09,0.09-0.17,0.2-0.21,0.32c-0.05,0.12-0.04,0.23,0.02,0.32l0.06,0.1l-0.25,0.17l-1.05-1.7
		l0.25-0.17c0.11,0.12,0.22,0.19,0.33,0.2c0.11,0.01,0.25-0.03,0.44-0.11c0.1-0.04,0.32-0.18,0.66-0.4l3.15-2.1
		c0.42,0.07,0.78,0.19,1.08,0.36c0.3,0.17,0.54,0.4,0.72,0.69c0.23,0.36,0.3,0.74,0.21,1.14c-0.09,0.4-0.27,0.82-0.55,1.27
		c-0.28,0.44-0.63,0.88-1.05,1.31c-0.55,0.55-1.22,1.09-2,1.61c-1.4,0.93-2.72,1.52-3.94,1.76c-1.22,0.24-2.03,0.05-2.41-0.56
		c-0.12-0.19-0.19-0.38-0.22-0.58c-0.01-0.11,0.01-0.31,0.06-0.61c0.05-0.3,0.07-0.47,0.05-0.5c-0.03-0.05-0.11-0.07-0.23-0.05
		c-0.12,0.02-0.33,0.09-0.61,0.23L127.33,58.65"/>
	<path class="st8" d="M124.15,54.3l0.24-0.18c0.13,0.09,0.29,0.12,0.48,0.09c0.25-0.05,0.86-0.27,1.83-0.68l3.83-1.59l2.13-1.59
		c0.46-0.34,0.73-0.56,0.83-0.66c0.09-0.1,0.16-0.21,0.2-0.33c0.04-0.12,0.02-0.23-0.06-0.33l-0.16-0.21l0.24-0.18l1.64,2.06
		l-0.24,0.18l-0.15-0.19c-0.09-0.11-0.2-0.16-0.34-0.15c-0.1,0-0.23,0.04-0.4,0.12c-0.12,0.06-0.4,0.25-0.84,0.58l-1.77,1.32
		l-3.09,3.69c-0.61,0.73-0.95,1.18-1.03,1.35c-0.08,0.17-0.07,0.31,0.02,0.43l-0.24,0.18l-1.4-1.76l0.24-0.18l0.06,0.08
		c0.08,0.11,0.18,0.15,0.29,0.14c0.11-0.01,0.2-0.05,0.28-0.11c0.16-0.12,0.49-0.48,1-1.1l2.39-2.85l-3.19,1.33
		c-0.78,0.32-1.28,0.56-1.49,0.72c-0.12,0.09-0.19,0.18-0.24,0.29c-0.06,0.14-0.03,0.3,0.07,0.48l-0.24,0.18L124.15,54.3"/>
	<path class="st8" d="M131.1,63.76c0.18,0.38,0.78,0.45,1.81,0.22c0.84-0.19,1.98-0.61,3.41-1.27c1.7-0.78,2.9-1.48,3.6-2.1
		c0.49-0.43,0.66-0.81,0.51-1.12c-0.1-0.21-0.31-0.33-0.62-0.36c-0.4-0.03-0.97,0.06-1.71,0.27c-0.74,0.22-1.66,0.58-2.77,1.09
		c-1.32,0.61-2.28,1.11-2.89,1.51c-0.61,0.4-1.01,0.74-1.2,1.03C131.05,63.31,131,63.56,131.1,63.76 M130.65,64.01
		c-0.37-0.63-0.16-1.38,0.62-2.25c0.79-0.86,1.93-1.64,3.41-2.32c1.27-0.58,2.45-0.94,3.56-1.07c1.47-0.18,2.38,0.1,2.73,0.85
		c0.35,0.74,0.02,1.6-1,2.57c-0.81,0.76-1.87,1.45-3.19,2.05c-1.48,0.68-2.82,1.04-4,1.07C131.59,64.95,130.88,64.65,130.65,64.01z"
		/>
	<g>
		<g>
			<path class="st9" d="M66.04,31.34l0.33-0.07c0.62-0.41,1.42-1.05,2.12-1.31c0.35-0.14,0.9-0.16,1.11-0.5
				c0.4-0.58,0-1.53-0.66-1.71c-0.12-0.02-0.17,0.07-0.21,0.19c0.18,0.28-0.93,1.03-1.05,1.19c-0.61,0.51-1.28,1.35-1.75,1.99
				c-0.02,0.04-0.33,0.27-0.26,0.34C65.79,31.5,65.95,31.39,66.04,31.34z M45.01,46.06c-0.11-0.17-0.57-0.89-0.65-1.05
				c0.24-0.61,0.9-1.17,1.21-1.75c0.26-0.71-0.31-0.57-0.77-0.55c-0.25,0-0.84,0.05-1.08,0c-0.09-0.15,0-0.18,0.13-0.45
				c0.23-0.39,0.49-0.78,0.7-1.11c0.26-0.54,0.91-1.25,1.01-1.83c-0.15-0.26-0.55-0.37-0.82-0.41c-0.29-0.04-0.59,0.09-0.77,0.31
				c-0.28,0.46-0.57,1.19-0.91,1.62c-0.28,0.01-0.03-1.07-0.06-1.21c0.05-0.23,0.28-0.46,0.35-0.69c0.09-0.21,0.27-0.61,0.08-0.81
				c-0.2-0.08-0.48-0.06-0.67,0.03c-0.27-0.04-0.69-0.1-0.96-0.11c-0.21,0.07-0.25,0.24-0.25,0.45c0,0,0.2,0.32,0.2,0.32
				c0.09,0.15,0.16,0.5,0.18,0.67c0,0.31-0.22,0.66-0.41,0.89c-0.15,0.17-0.51-0.05-0.69-0.08c-0.05-0.02-0.31,0-0.31-0.09
				c0,0,0.12-0.66,0.12-0.66c0.07-0.81,0.1-0.81,0.69-1.36c0.23-0.27,0.55-0.97,0.68-1.3c0.06-0.39,0.03-0.75-0.31-1
				c-0.45-0.08-1.44-0.5-1.88-0.27c-0.27,0.54-0.19,1.32-0.04,1.89c0.15,0.59,0.26,1.17-0.43,1.45c-0.08-0.1-0.15-0.42-0.17-0.54
				c-0.05-0.08-0.29-0.48-0.29-0.57c-0.05-0.07-0.29-0.52-0.4-0.56c-0.1-0.05-1.52-0.06-1.63,0.03c-0.36,0.15-0.54,0.25-0.28,0.66
				c0.15,0.13,1.18,0.42,1.5,0.58c0.21,0.18,0.8,0.5,1.04,0.46l0.06,0.09c-0.01,0.18-0.57,0.5-0.68,0.59
				c-0.37,0.27-0.82,0.55-1.19,0.82c-0.29,0.12-0.69,0.48-0.98,0.64c-0.37,0.68,0.81,0.68,1.22,0.78c0.31,0.06,0.52-0.19,0.63-0.44
				c0,0,0.52-0.69,0.52-0.69c0.29-0.25,1.07-1.42,1.47-1.27c0.04,0.05,0.04,0.68,0.04,0.75c-0.06,0.13-0.27,0.11-0.38,0.13
				c-0.1,0.03-0.27,0.04-0.28,0.17c-0.05,0.14-0.11,0.35,0,0.48c0.25,0.23,0.64,0.48,0.77,0.81l-0.05,0.1
				C40,42,39.72,41.93,39.49,41.97c-0.1,0.15,0.04,0.42-0.07,0.57c-0.47-0.01-1.05-0.17-1.52-0.15c-0.23-0.03-0.59-0.11-0.55,0.24
				c0.22,0.41,0.82,0.67,1.13,1.01c0.08,0.19-0.16,0.48-0.27,0.63l0.06,0.13c0.45,0.01,1.16,0.14,1.6,0.24
				c0.59-0.37,0.31-1.56,0.77-2.07c0.31-0.01,0.49,0.55,0.63,0.75c-0.12,0.32-0.52,0.68-0.72,0.97c-1.02,1.29-2.25,2.5-3.43,3.65
				c0.06,0.19,0.13,0.41,0.37,0.4c0.46-0.03,1.33-0.07,1.71-0.36c0.56-0.51,0.76-1.48,1.25-2.08c0.21-0.37,0.71-1.19,0.97-1.53
				c0.19-0.42,0.33-0.56,0.61-0.11c0.12,0.42-0.24,0.84-0.42,1.19c-0.5,0.92-0.95,2.11-1.17,3.13c-0.18,0.6-0.02,0.63,0.55,0.55
				c0.39-0.09,0.79-0.75,1.05-1.03c0.35-0.46,0.89-1.47,1.35-1.8c0,0,0.4,0.68,0.49,0.8c0.13,0.14,0.29,0.44,0.41,0.58
				c0.15,0.23,0.84,1.29,0.96,1.48c0.1,0.07,0.29,0.24,0.36,0.34c0.13,0.03,0.44,0.1,0.57,0.08c0.12-0.02,0.21-0.62,0.21-0.71
				c-0.03-0.67-0.35-1.22-0.44-1.41C45.77,47.07,45.21,46.41,45.01,46.06z M40.61,36.62c0.2-0.07,0.44,0.07,0.49,0.27
				c0.01,0.15-0.07,0.41-0.17,0.53c-0.05,0.1-0.21,0.21-0.31,0.11c-0.07-0.07-0.06-0.53-0.07-0.62
				C40.54,36.84,40.56,36.69,40.61,36.62z M41.53,40.94c-0.08-0.18-0.03-0.4,0.2-0.39c0.16-0.07,0.38-0.27,0.56-0.14
				c0.13,0.3,0.34,0.63,0.34,0.97c0.02,0.15-0.08,0.38-0.19,0.49c-0.05,0.06-0.13,0.15-0.22,0.11
				C41.93,41.74,41.78,41.23,41.53,40.94z M42.67,45.64c-0.19,0.29-0.61,0.85-0.82,1.12c-0.08,0.1-0.35,0.51-0.49,0.54l-0.03-0.05
				c0.25-0.76,0.77-1.53,1.06-2.28c0.17-0.08,0.28,0.17,0.34,0.27C42.79,45.37,42.73,45.54,42.67,45.64z M42.69,42.68
				c0.06-0.43,0.53-0.79,0.72-1.16c0.11-0.19,0.29-0.6,0.54-0.61c0.07,0.19-0.12,0.46-0.24,0.6c-0.05,0.18-0.2,0.5-0.31,0.65
				C43.28,42.53,43.16,42.87,42.69,42.68z M43.99,43.98c-0.07,0.09-0.2,0.13-0.2,0.13l-0.02-0.03c-0.13-0.06-0.52-0.58-0.43-0.76
				c0.21,0.07,0.62,0.15,0.74,0.35C44.07,43.69,44.06,43.89,43.99,43.98z M106.63,35.74c-0.22-0.06-0.56,0-0.76,0.11
				c-0.13,0.01-1.03,0.06-1.14,0.02c-0.13-0.14,0.53-0.88,0.58-0.99c0.22-0.23,0.77-0.8,0.97-1.03c0.15-0.05,0.32-0.25,0.38-0.39
				c0.19-0.44-0.22-1.18-0.35-1.6c-0.06-0.14-0.22-0.76-0.39-0.82l-0.32,0.08c0,0-0.18,0.25-0.18,0.25
				c-0.09,0.21-0.25,0.52-0.3,0.75c-0.64,1.18-1.54,2.58-2.46,3.56c-0.98-0.04-2.39,0.01-3.36-0.19c-0.36-0.11-1-0.54-1.37-0.34
				c-0.12,0.19,0.13,0.62,0.2,0.79c0,0,0.22,0.56,0.22,0.56c0.14,0.28,0.34,0.73,0.7,0.78c0.65-0.07,1.54-0.34,2.19-0.26
				c0.05,0.29-0.44,0.48-0.62,0.59c-0.28,0.26-1.6,0.53-1.96,0.62c-0.54,0.06-1.36-0.07-1.9-0.12c-0.17,0-0.59-0.19-0.71,0
				c-0.09,0.14,0.75,0.58,0.79,0.64c0.28,0.17,0.89,0.45,1.21,0.51c2.02,0.46,3.96-1.1,5.37-2.35c0.26-0.12,0.69-0.03,0.97-0.08
				l1.57,0.02c0.25,0.04,0.78,0.13,1.02,0.18l0.27-0.13C107.52,36.48,107.07,35.87,106.63,35.74z M125.16,41.17
				c-0.09-0.28-0.23-0.71-0.54-0.82c-0.74-0.18-1.6-0.5-2.33-0.72c-0.21,0-0.8,0.06-0.7-0.3c1.18-0.09,1.61,0.31,1.41-1.22
				c-0.03-0.41-0.29-0.86-0.73-0.53c-0.11,0.21-0.66,0.33-0.86,0.39c-0.11,0-0.3-0.01-0.37-0.12c-0.1-0.16-0.37-0.56-0.48-0.73
				c-0.13-0.21-0.28-0.3-0.51-0.16c-0.21,0.18,0,0.59,0.01,0.82c0.17,0.78-0.5,0.45-0.95,0.47c-0.42-0.16-0.34-0.21-0.23-0.6
				c0.2-0.84,0.27-1.81-0.13-2.6c-0.17-0.22-0.46-0.27-0.5,0.07c0,0.33-0.02,1.02-0.05,1.35c-0.15,0.4-0.29,1.21-0.62,1.48
				l-0.09-0.07c0.05-0.52,0.17-1.59-0.4-1.84c-0.33,0.08-0.27,0.82-0.33,1.06c-0.11,0.27-0.66,1.67-0.78,1.98
				c-0.4,1.18,0.5,0.8,0.84,0.1c0.34-0.12,0.26,0.3,0.26,0.49c0.01,0.28,0.02,0.76,0.38,0.8c0.29,0.01,0.6-0.21,0.73-0.47
				c0.03-0.29,0.25-0.72,0.36-0.98c0.07-0.43,0.27-0.28,0.59-0.29c0.23,0.09,0.95,0.11,1,0.42c-0.05,0.13-0.4,0.15-0.5,0.16
				c0,0-0.55,0.21-0.55,0.21c-0.22,0.15-0.43,0.43-0.58,0.68c-0.05,0.08-0.06,0.18-0.04,0.27c0.04,0.13,0.08,0.3,0.08,0.3
				c0.34,0.64,0.6,0.92,1.36,0.92c0.88,0.04,1.39-0.73,1.52-1.53c0.25-0.07,0.6,0.14,0.82,0.25c1.34,0.41,1.43,0.98-0.02,1.25
				c-0.78,0.16-1.73,0.56-2.52,0.44c-0.27-0.12-0.87-0.32-1.16-0.4c-0.61-0.21-1.44-0.54-2.05-0.75l-0.63-0.24
				c-0.16-0.06-0.46-0.23-0.49,0.06c0.14,0.3,0.31,0.88,0.69,0.92c0.33,0.18,0.9,0.25,1.26,0.3c0.18,0.07,0.57,0.18,0.76,0.22
				c0.22,0.09,0.82,0.1,0.71,0.46c-0.54,0.33-1.26,0.57-1.89,0.58c-1.39-0.35-2.94-0.84-4.33-1.23c-0.23-0.08-0.83-0.28-1.05-0.36
				c-0.31-0.16-0.72-0.41-1.07-0.46c-0.21,0.21,0.07,0.9,0.08,1.16c0.13,0.36,0.22,1.04,0.58,1.26c0.97,0.12,2.13-0.03,3.1,0.04
				c0.33,0.06,1.32,0.04,1.57,0.3c0.03,0.18-0.23,0.34-0.32,0.48c-0.75,0.79-1.74,1.8-2.61,2.47c-0.72,0.16-1.35-0.76-1.81-1.17
				c-0.06-0.06-0.15-0.01-0.21,0.02c0,0.36,0.4,0.86,0.51,1.2c0.1,0.35,0.4,1.01,0.58,1.32l0.14,0.22c0.05,0.08,0.13,0.13,0.21,0.16
				c0.11,0.04,0.23,0.08,0.23,0.08c0.52,0.06,0.99-0.42,1.31-0.77c0.14-0.2,1.74-2.07,1.74-2.07c0.32-0.33,1.22-1.26,1.58-1.52
				c0.11,0.01,0.33,0.05,0.43,0.1c0.19,0.13,0.24,0.27,0.15,0.48c-0.12,0.16-0.83,0.54-0.46,0.72c0.41,0.03,0.97,0.23,1.33,0.44
				c0.27,0.03,0.83,0.18,0.88-0.22c-0.04-0.58-0.2-1.32-0.69-1.68c-0.11-0.08-0.38-0.18-0.29-0.36c0.58-0.09,1.37,0.12,1.95,0.18
				c0.12,0.01,0.33,0,0.41-0.1c0.21-0.23,0.07-0.73,0.06-1.01c-0.02-0.07-0.1-0.29-0.06-0.36c0.71-0.11,1.57,0.02,2.25,0.23
				c0.55,0.17,1.25,0.59,1.72,0.05C125.31,42.45,125.37,41.69,125.16,41.17z M120.47,40.54c-0.15,0.19-0.31,0.48-0.59,0.4
				c-0.08-0.1-0.22-0.31-0.27-0.43c0.02-0.2,0.1-0.39,0.3-0.45c0.11-0.01,0.43-0.09,0.51,0.03
				C120.62,40.16,120.52,40.41,120.47,40.54z M105.19,41.77c-0.48-0.47-0.92-1.13-1.09-1.78c-0.11-0.39-0.27-1.21-0.25-1.62
				c-0.02-0.29,0.06-0.81-0.31-0.89c-0.26,0.03-0.33,0.15-0.33,0.4c-0.04,0.2-0.12,0.6-0.15,0.8c-0.11,0.92-0.24,1.94-0.34,2.86
				c0.29,1.02,0.63,0.58,1.41,0.86c0.62,0,1.26,0.34,1.86,0.25C106.12,42.23,105.43,42.01,105.19,41.77z M56.11,37.31
				c0.04-0.1,0.09-0.16,0.2-0.15c0.08-0.02,0.29-0.12,0.36-0.16c0.28-0.3,0.68-0.76,0.99-1.03c0.15-0.08,0.27-0.56,0.33-0.7
				c0,0-0.02-0.14-0.06-0.19l-0.2-0.09c-0.6-0.13-0.82-0.1-0.72-0.81c0.17-0.63,0.55-1.31,1.01-1.77c0.48-0.64,0.24-1.38-0.64-1.24
				c-0.16,0.05-0.64,0.3-0.8,0.37c-0.22,0.16-0.57,0.66-0.72,0.88c-0.19,0.26-0.54,0.81-0.7,1.09c-0.09,0.12-0.19,0.49-0.39,0.29
				c-0.16-0.33-0.28-0.73-0.38-1.09c-0.12-0.43,0.02-1.14-0.55-1.23c-0.21-0.04-0.66-0.12-0.88-0.12c-0.13-0.01-0.42-0.07-0.52,0.07
				c-0.11,0.26-0.44,0.85-0.38,1.14c0.25,0.38,0.74,0.68,1.02,1.03c0.27,0.56,0.76,1.31,0.98,1.89c-0.03,0.03-0.81,1.97-0.91,1.86
				c-0.33-0.19-0.65-0.55-0.91-0.87c-0.1-0.13-0.23-0.24-0.36-0.34c-0.11-0.09-0.23-0.19-0.28-0.28c-0.46-0.03-0.38,0.38-0.39,0.69
				c0,0.26,0.04,0.79,0.1,1.04c0.07,0.54,0.01,1.28,0.43,1.7c0.49,0.18,1.38,0.58,1.81,0.13c0.18-0.8,0.41-1.77,0.74-2.52
				c0.23-1.09,1.58,3.43,1.73,3.57c0.22,0.83,0.36,1.87,0.94,2.54c0.18,0.34,0.71,0.61,1.05,0.76c0.26,0.06,0.41-0.15,0.53-0.35
				c0.07-0.64-0.37-1.61-0.71-2.14C57.56,40.67,56.05,37.53,56.11,37.31z M55.58,36.12c-0.06-0.29-0.26-0.66-0.38-0.93
				c-0.05-0.39,0.35-0.9,0.54-1.21c0.05-0.08,0.19-0.33,0.31-0.34c0.21,0.23,0.18,0.8,0.24,1.09c0.07,0.33,0.17,0.77-0.04,1.07
				C56.08,36.01,55.81,36.59,55.58,36.12z M74.65,31.2c-0.02-0.15-0.06-0.31-0.18-0.32c-0.14,0.04-0.05,0.48-0.06,0.58
				c-0.09,0.4-0.22,0.93-0.56,1.19c-0.08-0.02-0.1-0.17-0.11-0.23c-0.05-0.52,0.01-1.23,0-1.77c0-0.05,0-0.1,0.01-0.16
				c0.25-1.46,0.11-2.45-1.62-2.59c-0.45,0.38-0.16,1.06,0,1.52c0.1,0.25,0.2,0.85,0.22,1.13c0.17,0.92,0.18,2.18,0.34,3.11
				c0,0.09,0.02,0.38-0.07,0.44c-0.12,0.09-0.62,0.56-0.75,0.61l-0.06-0.03c-0.04-0.16,0.14-0.38,0.18-0.53l-0.02-0.38
				c-0.05-0.52-0.75-0.84-0.71-1.37c0.14-0.5,0.36-1.13,0.17-1.64c-0.2-0.41-1.81-1.67-1.73-0.59c0.15,0.6,0.72,1.15,1.12,1.58
				c0.17,0.35-0.08,0.82-0.07,1.18c0.14,0.31,0.26,0.75,0.38,1.07c0.15,0.28,0.17,0.69,0.1,0.99c-0.09,0.27-0.38,0.75-0.32,1.04
				c0.22,0.35,0.7,0.22,1,0.05l0.51-0.49c0.05-0.05,0.3-0.43,0.39-0.4c0.17,1.43,0.35,3.42,0.51,4.86c0.06,0.35-0.03,0.71,0.47,0.65
				c0.22-0.08,0.45-0.46,0.48-0.67c0.19-1.2-0.12-3.14-0.13-3.51c-0.07-0.57-0.11-1.43-0.19-2c-0.04-0.46,0.06-0.61,0.4-0.91
				c0.16-0.24,1.05-1.02,0.96-1.35c-0.09-0.2-0.27-0.43-0.44-0.63C74.75,31.53,74.67,31.37,74.65,31.2z M69.73,33.92
				c-0.09,0.1-0.49,0.54-0.55,0.65c-0.25,0.02-0.12-0.33-0.12-0.46l0.08-0.66c0.06-0.44,0.33-1.01,0.52-1.4
				c0-0.24-0.26-0.47-0.43-0.61c-0.15-0.26-0.59-0.46-0.88-0.47c-0.33,0.14-0.35,0.59-0.41,0.9c-0.75,1.32-2.36,2.1-3.43,3.12
				c0.19,0.24,0.54,0.39,0.83,0.43c0.08,0.01,0.21-0.01,0.29-0.01c0.92-0.08,1.64-1.73,2.25-2.04c0.12,0,0.12,0.85,0.12,0.85
				s0,0.51,0,0.61c0.01,0.1,0.09,0.97,0.09,1.02c-0.01,0.05-0.16,0.29-0.22,0.33c-0.06,0.04-0.16-0.01-0.16-0.01
				c-0.01-0.06,0.07-0.1,0.08-0.2c0-0.09-0.15-0.72-0.45-0.5c-0.24,0.59-0.93,1.14-0.83,1.82c0.16,0.28,0.14,0.74,0.44,0.91
				c0.25,0,0.52-0.47,0.68-0.62c0.06-0.07,0.4-0.54,0.5-0.53c0.13,0.14,0.11,0.52,0.15,0.7c0.1,0.15,0.38,0.19,0.52,0.28
				c0.2,0,0.44-0.1,0.56-0.26c0.11-0.15-0.05-0.34-0.08-0.5c0.02-0.32-0.08-0.71-0.12-1.02c-0.07-0.52,0.47-1.1,0.69-1.53
				c0.16-0.29,0.48-0.93,0.6-1.24c0.05-0.11-0.01-0.31-0.07-0.4C70.13,33.18,69.91,33.71,69.73,33.92z M92.23,37.42
				c-1.64,0.09-2.41-0.62-3.44-1.76c0.09-0.37,0.68-0.96,0.89-1.29c0,0,0.26-0.21,0.26-0.21c0.03-0.05,0.1-0.34,0.17-0.37
				c-0.08-0.38-0.51-0.64-0.84-0.79c-0.13-0.04-0.3,0.03-0.42,0.01c0-0.41,0.35-1.01,0.58-1.33c0.27-0.36,0.55-1.03,0.98-1.21
				c0.26-0.07,0.63-0.3,0.87-0.42c0.1-0.08,0.15-0.18,0.13-0.31l-0.26-0.43c-0.07-0.02-0.2-0.08-0.25-0.13
				c-0.01-0.51-0.62-0.87-0.99-1.14l-0.22-0.08l-0.22,0.09c-0.07,0.17-0.1,0.58-0.11,0.76l-0.2,0.52l-0.23,0.57l-0.36,0.27
				c-0.88,0.36-1.82,0.99-2.73,1.3c-0.07,0.37,0.72,0.56,1,0.62c0.43-0.06,0.98-0.6,1.37-0.74c-0.02,0.4-0.44,1.04-0.57,1.43
				c-0.06,0.1-0.29,0.41-0.26,0.54c0,0.1,0.04,0.28,0.11,0.36c0.05,0.1,0.16,0.27,0.29,0.28c0.18-0.04,0.41-0.22,0.57-0.28
				l0.13,0.07c0.07,0.3-0.48,0.86-0.62,1.1c-0.17-0.08-0.37-0.44-0.56-0.49c-0.21-0.12-0.53-0.43-0.79-0.28
				c-0.1,0.28,0.22,0.71,0.33,0.95c0.07,0.16,0.22,0.48,0.3,0.63c0.13,0.16-0.18,0.45-0.24,0.59c-0.27,0.26-0.99,1.03-1.34,1.18
				c-0.32,0.15-1.06,0.58-1.26,0.07c0.28-2.16,0.65-4.64,1.51-6.64c0.23-0.18,0.71-0.5,0.96-0.65l0.34-0.22l0.04-0.23
				c-0.12-0.12-0.25-0.69-0.5-0.38l-0.08-0.06c0.35-0.31-0.69-1.21-0.94-1.39c-0.12-0.02-0.35,0.14-0.44,0.2l-0.09,0.41
				c-0.07,0.33-0.25,1-0.37,1.3l-1.16,0.59c-0.16-0.03-0.43,0.02-0.56,0.12c-0.04,0.09,0.2,0.48,0.23,0.56
				c0.1,0.13,0.35,0.52,0.55,0.52c0,0,0.17-0.02,0.17-0.02c0.07-0.08,0.19-0.23,0.31-0.17c-0.1,0.21-0.24,0.77-0.28,1
				c-0.19,0.54-0.95,0.95-1.34,1.33c-0.36,0.34-1.11,1.01-1.48,1.34c-0.11,0.11-0.36,0.26-0.51,0.25c-0.78,0.39-0.66,0.4-0.16,1.03
				c0.11,0.07,0.34,0.17,0.49,0.21c0.03,0.01,0.07,0.01,0.1-0.01c0.35-0.15,0.81-0.51,1.12-0.79c0.07-0.06,0.12-0.13,0.17-0.21
				c0.11-0.22,0.32-0.51,0.46-0.65c0.23-0.28,0.57-0.8,0.83-1.05l0.09,0.04c-0.06,0.19-0.26,0.99-0.31,1.2
				c-0.11,0.29-0.15,2.32-0.57,2.4c-0.15-0.01-0.44-0.04-0.59-0.06c-0.3-0.11-0.54-0.26-0.84-0.03l0,0.13
				c0.51,0.36,1.12,0.68,1.58,1.11c0,0,0.19,0.19,0.19,0.19c0.04,0.13,0.09,0.19,0.23,0.21c0.38-0.09,0.76-0.47,0.81-0.86l0.08-0.02
				c0.39,0.66,0.49,0.57,1.14,0.3c0.77-0.43,1.77-1.13,2.37-1.76c0.3,0.25,0.61,0.85,0.83,1.18c0.1,0.19,0.24,0.56,0.5,0.58
				c0.64,0.12,1.44-0.15,2.06-0.33c0.34-0.16,1.2-0.26,1.4-0.6C92.52,37.38,92.38,37.41,92.23,37.42z"/>
		</g>
	</g>
</g>
<path class="st0" d="M446.94,109.17l2.43-4.38h-1.02l-1.87,3.53l-1.83-3.53h-1.02l2.43,4.38v2.97h0.88V109.17 M439.5,109.04h1.97
	c0.02,0.88-0.2,1.54-0.67,1.97c-0.38,0.32-0.82,0.48-1.34,0.48c-1.43,0-2.15-1.02-2.15-3.05c0.07-1.9,0.77-2.9,2.12-3.01
	c1.06,0.03,1.7,0.55,1.94,1.57h0.85c-0.23-1.5-1.15-2.3-2.75-2.41c-1.88,0.11-2.9,1.38-3.07,3.81c-0.02,1.31,0.32,2.34,1.02,3.09
	c0.47,0.51,1.14,0.76,2.01,0.76c0.92-0.03,1.62-0.37,2.11-1.04l0.21,0.92h0.56v-3.93h-2.82V109.04z M435.12,108.48
	c-0.02-1.1-0.31-2.05-0.85-2.85c-0.56-0.7-1.33-1.04-2.29-1.04c-0.87,0-1.57,0.27-2.11,0.8c-0.68,0.78-1.03,1.81-1.06,3.09
	c0.02,1.02,0.27,1.9,0.74,2.65c0.56,0.75,1.37,1.12,2.43,1.12c0.99,0,1.76-0.35,2.33-1.04
	C434.82,110.49,435.09,109.58,435.12,108.48z M434.24,108.48c-0.09,1.87-0.85,2.86-2.26,2.97c-1.43-0.08-2.18-1.07-2.26-2.97
	c0.07-1.95,0.82-2.97,2.26-3.05C433.39,105.54,434.14,106.55,434.24,108.48z M424.5,104.79h-0.88v7.35h4.16v-0.88h-3.28V104.79z
	 M422.1,108.48c-0.02-1.1-0.3-2.05-0.85-2.85c-0.56-0.7-1.33-1.04-2.29-1.04c-0.87,0-1.57,0.27-2.12,0.8
	c-0.68,0.78-1.03,1.81-1.06,3.09c0.02,1.02,0.27,1.9,0.74,2.65c0.56,0.75,1.38,1.12,2.43,1.12c0.99,0,1.76-0.35,2.33-1.04
	C421.8,110.49,422.07,109.58,422.1,108.48z M421.21,108.48c-0.09,1.87-0.85,2.86-2.26,2.97c-1.43-0.08-2.19-1.07-2.26-2.97
	c0.07-1.95,0.82-2.97,2.26-3.05C420.37,105.54,421.12,106.55,421.21,108.48z M413.42,110.73L413.42,110.73l-3.24-5.94h-1.06v7.35
	h0.85v-5.94h0.03l3.28,5.94h0.99v-7.35h-0.85V110.73z M406.39,107.8h-3.39v-3.01h-0.88v7.35h0.88v-3.41h3.39v3.41h0.88v-7.35h-0.88
	V107.8z M400.53,106.96c-0.24-1.53-1.12-2.32-2.64-2.37c-0.89,0-1.61,0.32-2.15,0.96c-0.59,0.72-0.88,1.69-0.88,2.89
	c0,1.12,0.23,2.05,0.71,2.77c0.54,0.67,1.27,1.02,2.18,1.04c1.64-0.05,2.6-1,2.85-2.85h-0.84c-0.24,1.34-0.85,2.02-1.83,2.05
	c-1.43,0-2.15-1.02-2.15-3.05c0.05-1.9,0.75-2.89,2.12-2.97c0.99,0.03,1.59,0.53,1.8,1.53H400.53z M393.51,111.25h-3.88v-2.45h3.52
	v-0.88h-3.52v-2.29h3.81v-0.84h-4.69v7.35h4.76V111.25z M382.15,105.63h2.19v6.5h0.85v-6.5h2.19v-0.84h-5.22V105.63z M374.61,105.59
	h1.62c1.29,0.05,1.95,1,1.97,2.85c-0.05,1.82-0.68,2.77-1.9,2.85h-1.69V105.59z M373.72,112.13h2.61c1.01,0,1.74-0.44,2.19-1.32
	c0.38-0.64,0.57-1.46,0.57-2.45c0-1.02-0.21-1.83-0.63-2.45c-0.49-0.75-1.19-1.12-2.08-1.12h-2.64V112.13z M371,110.73L371,110.73
	l-3.24-5.94h-1.06v7.35h0.85v-5.94h0.03l3.28,5.94h0.99v-7.35H371V110.73z M361.51,109.12l1.02-3.25h0.04l0.95,3.25H361.51z
	 M363.84,110.01l0.63,2.13h0.95l-2.33-7.35h-0.99l-2.43,7.35h0.88l0.67-2.13H363.84z M356.58,111.25h-3.88v-2.45h3.52v-0.88h-3.52
	v-2.29h3.81v-0.84h-4.69v7.35h4.76V111.25z M350.12,106.96c-0.24-1.53-1.12-2.32-2.64-2.37c-0.89,0-1.61,0.32-2.15,0.96
	c-0.59,0.72-0.88,1.69-0.88,2.89c0,1.12,0.23,2.05,0.71,2.77c0.54,0.67,1.27,1.02,2.19,1.04c1.64-0.05,2.6-1,2.85-2.85h-0.85
	c-0.24,1.34-0.85,2.02-1.83,2.05c-1.43,0-2.15-1.02-2.15-3.05c0.05-1.9,0.75-2.89,2.11-2.97c0.99,0.03,1.59,0.53,1.8,1.53H350.12z
	 M342.04,110.73L342.04,110.73l-3.24-5.94h-1.06v7.35h0.85v-5.94h0.03l3.28,5.94h0.99v-7.35h-0.84V110.73z M336.11,111.25h-3.88
	v-2.45h3.52v-0.88h-3.52v-2.29h3.81v-0.84h-4.69v7.35h4.76V111.25z M329.26,104.79h-0.88v7.35h0.88V104.79z M326.64,106.96
	c-0.23-1.53-1.12-2.32-2.64-2.37c-0.89,0-1.61,0.32-2.15,0.96c-0.59,0.72-0.88,1.69-0.88,2.89c0,1.12,0.23,2.05,0.71,2.77
	c0.54,0.67,1.27,1.02,2.19,1.04c1.64-0.05,2.6-1,2.85-2.85h-0.84c-0.24,1.34-0.85,2.02-1.83,2.05c-1.43,0-2.15-1.02-2.15-3.05
	c0.05-1.9,0.75-2.89,2.11-2.97c0.99,0.03,1.59,0.53,1.8,1.53H326.64z M319.48,106.92c-0.05-1.55-0.88-2.33-2.5-2.33
	c-0.64,0-1.13,0.16-1.48,0.48c-0.5,0.4-0.75,0.99-0.78,1.77c0,0.88,0.46,1.47,1.38,1.77l1.34,0.32c0.56,0.13,0.94,0.29,1.13,0.48
	c0.19,0.19,0.28,0.47,0.28,0.84c-0.02,0.8-0.6,1.22-1.73,1.24c-1.15-0.03-1.74-0.6-1.76-1.73h-0.85c-0.02,0.83,0.2,1.45,0.67,1.85
	c0.38,0.43,1.02,0.64,1.94,0.64c0.7,0,1.32-0.16,1.83-0.48c0.47-0.35,0.7-0.89,0.7-1.65c0-1.07-0.48-1.74-1.44-2.01l-1.83-0.48
	c-0.52-0.08-0.77-0.39-0.77-0.92c0-0.83,0.48-1.26,1.45-1.28c1.03,0.05,1.57,0.55,1.62,1.48H319.48z M307.78,108.8h3.17v-0.88h-3.17
	v-2.29h3.6v-0.84h-4.48v7.35h0.88V108.8z M305.27,108.48c-0.02-1.1-0.3-2.05-0.85-2.85c-0.56-0.7-1.33-1.04-2.29-1.04
	c-0.87,0-1.57,0.27-2.11,0.8c-0.68,0.78-1.04,1.81-1.06,3.09c0.02,1.02,0.27,1.9,0.74,2.65c0.56,0.75,1.37,1.12,2.43,1.12
	c0.99,0,1.76-0.35,2.33-1.04C304.97,110.49,305.24,109.58,305.27,108.48z M304.38,108.48c-0.09,1.87-0.85,2.86-2.26,2.97
	c-1.43-0.08-2.19-1.07-2.26-2.97c0.07-1.95,0.82-2.97,2.26-3.05C303.54,105.54,304.29,106.55,304.38,108.48z M293.56,109.17
	l2.43-4.38h-1.02l-1.87,3.53l-1.83-3.53h-1.02l2.43,4.38v2.97h0.88V109.17z M284.28,105.63h2.19v6.5h0.85v-6.5h2.19v-0.84h-5.22
	V105.63z M282.83,104.79h-0.88v7.35h0.88V104.79z M280.04,106.92c-0.05-1.55-0.88-2.33-2.5-2.33c-0.63,0-1.13,0.16-1.48,0.48
	c-0.5,0.4-0.75,0.99-0.78,1.77c0,0.88,0.46,1.47,1.38,1.77l1.34,0.32c0.56,0.13,0.94,0.29,1.13,0.48c0.19,0.19,0.28,0.47,0.28,0.84
	c-0.02,0.8-0.6,1.22-1.73,1.24c-1.15-0.03-1.74-0.6-1.76-1.73h-0.85c-0.02,0.83,0.2,1.45,0.67,1.85c0.38,0.43,1.02,0.64,1.94,0.64
	c0.7,0,1.32-0.16,1.83-0.48c0.47-0.35,0.7-0.89,0.7-1.65c0-1.07-0.48-1.74-1.44-2.01l-1.83-0.48c-0.52-0.08-0.77-0.39-0.77-0.92
	c0-0.83,0.48-1.26,1.44-1.28c1.03,0.05,1.57,0.55,1.62,1.48H280.04z M269.31,105.59h2.19c0.77,0,1.16,0.41,1.16,1.24
	c0,0.86-0.44,1.28-1.3,1.28h-2.04V105.59z M269.31,108.96h2.12c0.8,0,1.19,0.44,1.16,1.33c0.02,0.88,0.07,1.5,0.14,1.85h1.09v-0.16
	c-0.24-0.11-0.34-0.35-0.32-0.72l-0.07-1.32c0-0.78-0.26-1.24-0.78-1.4c0.61-0.38,0.92-0.96,0.92-1.77c0-0.78-0.22-1.3-0.67-1.57
	c-0.33-0.27-0.82-0.4-1.48-0.4h-3v7.35h0.88V108.96z M266.7,111.25h-3.88v-2.45h3.52v-0.88h-3.52v-2.29h3.81v-0.84h-4.69v7.35h4.76
	V111.25z M257.67,111.05L257.67,111.05l-1.83-6.26h-0.99l2.36,7.35h0.95l2.36-7.35h-0.99L257.67,111.05z M253.36,104.79h-0.88v7.35
	h0.88V104.79z M249.65,110.73L249.65,110.73l-3.24-5.94h-1.06v7.35h0.85v-5.94h0.03l3.28,5.94h0.99v-7.35h-0.84V110.73z
	 M242.63,104.79v4.62c0,1.34-0.58,2.02-1.73,2.05c-1.06-0.03-1.6-0.71-1.62-2.05v-4.62h-0.88v4.9c0,0.86,0.25,1.53,0.74,2.01
	c0.45,0.37,1.02,0.56,1.73,0.56c0.85,0,1.48-0.21,1.9-0.64c0.47-0.53,0.72-1.23,0.74-2.09v-4.74H242.63z M231.7,109.04h1.97
	c0.02,0.88-0.2,1.54-0.67,1.97c-0.37,0.32-0.82,0.48-1.34,0.48c-1.43,0-2.15-1.02-2.15-3.05c0.07-1.9,0.77-2.9,2.11-3.01
	c1.06,0.03,1.7,0.55,1.94,1.57h0.85c-0.23-1.5-1.15-2.3-2.75-2.41c-1.88,0.11-2.9,1.38-3.07,3.81c-0.02,1.31,0.32,2.34,1.02,3.09
	c0.47,0.51,1.14,0.76,2.01,0.76c0.92-0.03,1.62-0.37,2.11-1.04l0.21,0.92h0.57v-3.93h-2.82V109.04z M226.16,110.73L226.16,110.73
	l-3.24-5.94h-1.06v7.35h0.85v-5.94h0.03l3.28,5.94H227v-7.35h-0.85V110.73z M220.33,108.48c-0.02-1.1-0.31-2.05-0.85-2.85
	c-0.56-0.7-1.33-1.04-2.29-1.04c-0.87,0-1.57,0.27-2.12,0.8c-0.68,0.78-1.03,1.81-1.06,3.09c0.02,1.02,0.27,1.9,0.74,2.65
	c0.56,0.75,1.38,1.12,2.43,1.12c0.99,0,1.76-0.35,2.33-1.04C220.04,110.49,220.31,109.58,220.33,108.48z M219.45,108.48
	c-0.09,1.87-0.85,2.86-2.26,2.97c-1.43-0.08-2.18-1.07-2.26-2.97c0.07-1.95,0.82-2.97,2.26-3.05
	C218.6,105.54,219.36,106.55,219.45,108.48z M211.62,107.8h-3.39v-3.01h-0.88v7.35h0.88v-3.41h3.39v3.41h0.88v-7.35h-0.88V107.8z
	 M206,111.25h-3.99l3.99-5.62v-0.84h-4.8v0.84h3.67l-3.95,5.7v0.8H206V111.25z M196.2,109.12l1.02-3.25h0.04l0.95,3.25H196.2z
	 M198.52,110.01l0.63,2.13h0.95l-2.33-7.35h-0.99l-2.43,7.35h0.88l0.67-2.13H198.52z M192.17,104.79v4.62
	c0,1.34-0.58,2.02-1.73,2.05c-1.06-0.03-1.6-0.71-1.62-2.05v-4.62h-0.88v4.9c0,0.86,0.25,1.53,0.74,2.01
	c0.45,0.37,1.02,0.56,1.73,0.56c0.85,0,1.48-0.21,1.9-0.64c0.47-0.53,0.72-1.23,0.74-2.09v-4.74H192.17z M185.18,107.8h-3.39v-3.01
	h-0.88v7.35h0.88v-3.41h3.39v3.41h0.88v-7.35h-0.88V107.8z"/>
<g>
	<g>
		<path class="st0" d="M218.71,61.03c-0.73-0.65-1.78-0.86-2.71-0.58c-1.64,0.75-3.78,2.21-5.51,2.75
			c-0.78-0.49,1.92-3.01,2.07-3.45c0.57-0.54,1.64-0.75,2.25-1.25c0.65-0.41,1.87-1.19,1.72-2.1c-0.4-0.58-1.2-1.05-1.9-1.14
			c-0.66-0.6-1.7-1.57-2.43-2.09c-0.72-0.19-1.14,0.19-1.51,0.77c0,0-0.07,1.25-0.07,1.25c-0.01,0.58-0.49,1.68-0.76,2.19
			c-0.58,0.86-1.84,1.39-2.79,1.7c-0.73,0.17-1.33-1.08-1.76-1.5c-0.12-0.14-0.85-0.58-0.69-0.84c0,0,1.54-1.59,1.54-1.59
			c1.7-2.09,1.79-2.05,4.41-2.46c1.13-0.32,3.31-1.64,4.29-2.31c0.87-0.96,1.46-2,1.02-3.33c-1.09-1.07-3.03-4.04-4.67-4.25
			c-1.75,0.97-3,3.28-3.61,5.12c-0.68,1.92-1.44,3.71-3.87,3.18c-0.03-0.41,0.36-1.42,0.53-1.79c0.02-0.31,0.11-1.87,0.26-2.11
			c-0.01-0.28,0.17-1.96-0.06-2.28c-0.18-0.33-4.06-2.97-4.55-2.95c-1.29-0.25-1.95-0.32-2,1.28c0.15,0.64,2.46,3.34,3.05,4.39
			c0.26,0.89,1.28,2.88,2,3.19l-0.01,0.35c-0.35,0.48-2.48,0.31-2.97,0.34c-1.52,0.04-3.29-0.01-4.8,0.05
			c-1.03-0.23-2.81,0.04-3.88-0.07c-2.29,1.17,0.97,3.38,1.9,4.41c0.72,0.74,1.77,0.45,2.55-0.03c0,0,2.72-0.92,2.72-0.92
			c1.26-0.13,5.6-1.93,6.39-0.75c0.02,0.2-1.17,1.94-1.28,2.14c-0.4,0.24-0.95-0.19-1.3-0.36c-0.34-0.09-0.82-0.38-1.1-0.04
			c-0.4,0.3-0.95,0.76-0.88,1.33c0.26,1.09,0.87,2.51,0.6,3.66l-0.32,0.18c-0.66-0.4-1.3-1.13-2.03-1.43
			c-0.54,0.22-0.67,1.24-1.25,1.42c-1.26-0.9-2.57-2.4-3.91-3.25c-0.57-0.49-1.43-1.39-1.96-0.35c-0.15,1.53,1,3.38,1.24,4.87
			c-0.15,0.68-1.34,1.01-1.9,1.23l-0.07,0.46c1.21,0.87,2.93,2.54,3.97,3.62c2.29,0.08,3.75-3.71,5.96-4.27
			c0.87,0.54,0.32,2.4,0.35,3.22c-0.93,0.66-2.71,0.91-3.79,1.32c-5.22,1.66-10.83,2.71-16.21,3.66c-0.18,0.64-0.41,1.36,0.27,1.77
			c1.34,0.78,3.77,2.29,5.39,2.19c2.49-0.37,4.85-2.66,7.31-3.4c1.28-0.63,4.16-1.96,5.5-2.41c1.31-0.79,1.94-0.95,1.87,0.84
			c-0.45,1.38-2.24,1.87-3.37,2.51c-3.08,1.59-6.55,4.03-9.04,6.45c-1.63,1.32-1.22,1.69,0.48,2.54c1.24,0.49,3.58-0.6,4.78-0.88
			c1.81-0.61,5.18-2.38,7.07-2.45c0,0-0.16,2.61-0.16,3.11c0.1,0.63-0.02,1.73,0.05,2.36c-0.01,0.91-0.1,5.11-0.1,5.86
			c0.03,0.45,0.22,1.17,0.36,1.59c0.31,0.32,1.03,1.08,1.42,1.28c0.38,0.17,1.73-1.31,1.88-1.56c1.18-1.89,1.3-4,1.42-4.68
			c0.24-1.37-0.1-4.23,0.02-5.57c0.02-0.65,0.1-3.5,0.15-4.1c1.78-1.22,4.66-1.55,6.58-2.55c2.03-1.46,0.21-2.15-1.09-2.94
			c-0.68-0.46-2.41-1.44-2.97-2c0.02-0.58,0.32-0.48,1.2-0.99c1.35-0.63,2.82-1.24,4-1.76c1.73-1,4.81-1.74,6.18-3.14
			C220.27,62.69,219.38,61.64,218.71,61.03z M210.87,47.74c0.11-0.26,0.43-0.63,0.71-0.72c0.68,0.19,1.07,1.01,0.85,1.67
			c-0.27,0.43-0.95,1.02-1.45,1.15c-0.32,0.16-0.97,0.19-1.06-0.26C209.86,49.26,210.73,48.01,210.87,47.74z M201.33,74.67
			c-0.01,0.46-0.5,0.81-0.87,0.99c-1.05,0.45-3.25,1.21-4.35,1.54c-0.42,0.13-1.91,0.75-2.36,0.56l0-0.19
			c2.1-1.64,4.96-2.78,7.15-4.29C201.51,73.39,201.36,74.26,201.33,74.67z M206.1,60.61c0.1-0.65,0.66-1.15,1.28-0.69
			c0.57,0.12,1.56-0.04,1.8,0.65c-0.19,1.06-0.24,2.37-0.86,3.3c-0.24,0.45-0.94,0.89-1.43,1c-0.25,0.07-0.65,0.17-0.82-0.11
			C205.69,63.56,206.24,61.86,206.1,60.61z M207.2,73.54c-0.34,0.11-0.8,0-0.8,0l-0.01-0.11c-0.25-0.42-0.35-2.55,0.21-2.88
			c0.45,0.6,1.42,1.58,1.39,2.35C207.98,72.89,207.54,73.43,207.2,73.54z M211.04,66.21c-0.45,0.4-1.49,1-2.05,1.22
			c-1.03,0.8-2.01,1.52-2.95,0.1c0.95-1.07,2.92-1.21,4.14-1.84c0.66-0.34,1.9-1.12,2.64-0.68
			C212.64,65.68,211.62,66.05,211.04,66.21z M271.38,54.77l1.15-0.13c2.29-1.17,5.28-3.07,7.79-3.68c1.24-0.35,3.17-0.21,4.03-1.3
			c1.59-1.85,0.6-5.27-1.61-6.13c-0.39-0.11-0.61,0.18-0.8,0.56c0.52,1.04-3.58,3.19-4.07,3.71c-2.29,1.51-4.93,4.15-6.79,6.16
			c-0.1,0.13-1.23,0.79-1.02,1.07C270.43,55.22,271.03,54.88,271.38,54.77z M283.09,65.05c-0.35,0.32-1.88,1.66-2.12,2.03
			c-0.88-0.01-0.31-1.17-0.23-1.62c0,0,0.52-2.26,0.52-2.26c0.37-1.48,1.53-3.34,2.31-4.61c0.1-0.82-0.72-1.71-1.25-2.26
			c-0.42-0.96-1.84-1.79-2.85-1.95c-1.17,0.36-1.44,1.91-1.77,2.93c-3.09,4.26-8.92,6.3-12.98,9.4c0.56,0.89,1.7,1.55,2.69,1.79
			c0.28,0.06,0.71,0.06,0.99,0.06c3.2,0.08,6.3-5.32,8.51-6.17c0.42,0.06,0.09,2.97,0.09,2.97s-0.12,1.29-0.18,1.97
			c-0.01,0.09-0.01,0.16-0.01,0.24c-0.01,0.61-0.08,3.26-0.11,3.43c-0.04,0.18-0.65,0.95-0.88,1.05c-0.23,0.1-0.56-0.09-0.56-0.09
			c-0.01-0.22,0.3-0.32,0.33-0.64s-0.24-2.55-1.34-1.88c-1.06,1.94-3.62,3.56-3.57,5.94c0.45,1.02,0.19,2.59,1.16,3.3
			c0.86,0.09,1.96-1.42,2.56-1.88c0.23-0.21,1.57-1.71,1.93-1.62c0.41,0.55,0.18,1.82,0.26,2.47c0.27,0.55,1.23,0.8,1.69,1.16
			c0.7,0.06,1.56-0.16,2.03-0.7c0.45-0.46-0.05-1.2-0.07-1.74c0.19-1.1,0-2.46-0.03-3.57c-0.05-1.81,2.04-3.6,2.96-5
			c0.67-0.94,2.01-3.02,2.53-4.05c0.2-0.38,0.1-1.06-0.1-1.42C284.72,62.66,283.77,64.39,283.09,65.05z M395.44,78.72
			c-2.2-0.5-4.65-1.59-6.31-3.15c-1.02-0.92-2.91-2.99-3.6-4.19c-0.58-0.79-1.27-2.42-2.49-2c-0.69,0.54-0.68,1.02-0.24,1.74
			c0.23,0.65,0.72,1.93,0.99,2.56c1.31,2.84,2.79,5.99,4.11,8.8c2.63,2.4,2.84,0.52,5.58-0.06c1.78-1.09,4.2-1.28,5.76-2.61
			C398.92,78.38,396.53,78.98,395.44,78.72z M388.94,63.25c0.77-0.33,2.46-1.02,3.24-1.3c0,0,0.53-0.85,0.53-0.85
			c-0.03-1.65-2.4-2.59-3.88-2.2c-0.75,0.21-1.6,1.02-1.98,1.67c-0.37,0.26-2.83,2.02-3.22,2.08c-0.63-0.16-0.05-3.47-0.09-3.86
			c0.22-1.04,0.79-3.65,0.94-4.67c0.33-0.42,0.47-1.29,0.39-1.8c-0.25-1.61-2.73-2.98-3.84-3.96c-0.43-0.31-1.98-1.78-2.57-1.64
			l-0.77,0.79c0,0-0.07,1.02-0.07,1.02c0.1,0.76,0.2,1.94,0.48,2.67c0.27,4.51,0.18,10.14-0.7,14.59c-2.88,1.64-6.82,4.3-9.95,5.42
			c-1.23,0.34-3.81,0.24-4.54,1.45c0,0.77,1.48,1.56,2,1.91c0,0,1.62,1.23,1.62,1.23c0.9,0.56,2.29,1.49,3.37,0.98
			c1.75-1.37,3.79-3.73,5.81-4.64c0.66,0.75-0.41,2.15-0.73,2.81c-0.32,1.25-3.64,4.36-4.52,5.28c-1.44,1.11-4.03,2.22-5.65,3.04
			c-0.49,0.29-2.03,0.53-2.02,1.25c0,0.55,3.18,0.33,3.39,0.43c1.12-0.01,3.34-0.28,4.38-0.7c6.61-2.27,9.38-10.19,11.19-16.28
			c0.53-0.79,1.92-1.33,2.63-1.97L388.94,63.25z M255.53,51.17c-0.56-0.06-2.33,0.08-2.92,0.08c-0.87,0.22-2.61,1.26-3.36,1.76
			c-0.91,0.56-2.7,1.78-3.56,2.41c-0.43,0.25-1.22,1.23-1.56,0.38c-0.07-1.21,0.08-2.6,0.23-3.82c0.19-1.46,1.53-3.47-0.09-4.48
			c-0.59-0.41-1.86-1.22-2.53-1.5c-0.38-0.2-1.19-0.77-1.67-0.47c-0.68,0.66-2.46,2.02-2.64,2.97c0.27,1.47,1.36,3.04,1.77,4.48
			c0.1,2.07,0.63,5,0.54,7.05c-0.14,0.04-5.03,4.97-5.2,4.5c-0.76-1-1.27-2.52-1.66-3.85c-0.15-0.53-0.38-1.02-0.65-1.5
			c-0.24-0.41-0.45-0.88-0.48-1.21c-1.35-0.69-1.65,0.65-2.09,1.61c-0.33,0.81-0.88,2.46-1.03,3.32c-0.48,1.74-1.63,3.94-0.89,5.74
			c1.27,1.19,3.48,3.56,5.37,2.73c1.59-2.2,3.55-4.86,5.54-6.73c1.99-2.85,0.59,10.66,0.63,12.86c0.01,0.3-0.01,0.59-0.06,0.88
			c-0.42,2.68-1.16,5.79-0.32,8.38c0.11,1.27,1.38,2.79,2.24,3.69c0.72,0.54,1.45,0.06,2.06-0.39c1.05-1.88,0.95-5.4,0.59-7.46
			c-0.06-2.19-0.59-13.75-0.11-14.32c0.25-0.25,0.48-0.38,0.82-0.2c0.28,0.06,1.04-0.01,1.32-0.02c1.24-0.55,3.06-1.46,4.36-1.87
			c0.55-0.04,1.56-1.36,1.91-1.72c0,0,0.13-0.46,0.07-0.64l-0.49-0.54c-1.66-1.17-2.37-1.36-1.17-3.4c1.32-1.71,3.38-3.3,5.4-4.09
			C258.18,54.45,258.41,51.88,255.53,51.17z M247.55,60.64c-0.21,1.09-0.48,2.59-1.52,3.21c-0.78,0.38-2.34,1.83-2.45,0.1
			c0.21-0.97,0.05-2.34,0.04-3.32c0.36-1.24,2.23-2.29,3.22-3c0.28-0.19,1.01-0.75,1.38-0.64
			C248.57,57.97,247.73,59.67,247.55,60.64z M443.19,48.17c0.15-2-1.52-3.95-3.29-4.68c-0.89-0.46-2.25-1.14-3.25-0.64
			c-2.18,1.36-5,2.68-7.27,3.89c-0.5,0.5-1.75,2.07-2.4,0.98c2.59-3.05,4.56-3.15,0.4-6.3c-1.07-0.9-2.76-1.34-3,0.51
			c0.24,0.76-0.76,2.36-1.1,2.98c-0.25,0.26-0.75,0.7-1.15,0.6c-0.63-0.14-2.24-0.44-2.89-0.57c-0.81-0.17-1.38-0.04-1.6,0.83
			c-0.07,0.94,1.43,1.4,2.01,1.93c2.29,1.45-0.09,2.27-1.13,3.42c-1.4,0.64-1.33,0.32-2.01-0.87c-1.55-2.46-3.71-4.94-6.56-5.85
			c-0.96-0.11-1.74,0.46-1.03,1.37c0.8,0.78,2.41,2.48,3.15,3.33c0.62,1.32,2.22,3.58,2.09,4.99l-0.38,0.06
			c-1.12-1.35-3.41-4.18-5.38-3.42c-0.57,0.98,1.32,2.6,1.75,3.32c0.39,0.92,2.45,5.55,2.91,6.57c1.89,3.76,3.11,0.7,2.23-1.8
			c0.5-1.1,1.33,0.07,1.8,0.53c0.69,0.63,1.89,1.76,2.84,0.99c0.7-0.68,0.92-1.97,0.61-2.87c-0.62-0.78-1.14-2.29-1.51-3.21
			c-0.87-1.17-0.05-1.32,0.69-2.1c0.77-0.33,2.52-2.03,3.39-1.41c0.2,0.42-0.58,1.31-0.8,1.6c0,0-0.8,1.81-0.8,1.81
			c-0.16,0.89,0.01,2.05,0.25,3c0.08,0.31,0.27,0.57,0.55,0.72c0.39,0.21,0.92,0.5,0.92,0.5c2.35,0.69,3.66,0.74,5.45-1.1
			c2.19-2.04,1.54-5.1-0.09-7.29c0.42-0.75,1.75-1.12,2.54-1.39c4.18-2.27,5.75-1.12,2.96,3.01c-1.46,2.25-2.74,5.49-4.93,7.11
			c-0.93,0.38-2.83,1.35-3.72,1.84c-1.97,0.97-4.71,2.18-6.68,3.15c0,0-2.07,0.97-2.07,0.97c-0.53,0.23-1.64,0.55-1.02,1.33
			c1.06,0.39,2.86,1.34,3.87,0.52c1.19-0.37,2.74-1.58,3.72-2.33c0.61-0.27,1.79-0.94,2.35-1.31c0.76-0.32,2.18-1.74,2.79-0.6
			c-0.49,2.08-1.61,4.39-3.08,5.94c-4.13,2.53-9,5.07-13.24,7.49c-0.74,0.36-2.64,1.32-3.35,1.67c-1.12,0.39-2.69,0.77-3.64,1.48
			c0.02,1.01,2.34,1.97,2.97,2.56c1.18,0.54,3.03,1.94,4.4,1.6c2.59-2.04,4.97-5.22,7.47-7.37c0.94-0.65,3.23-3.1,4.46-3.06
			c0.51,0.37,0.28,1.36,0.4,1.9c0.12,3.68,0.22,8.47-0.25,12.15c-1.32,2.1-5.02,1.45-7.12,1.59c-0.29-0.01-0.36,0.33-0.45,0.55
			c0.86,0.85,3.03,1.09,4.11,1.62c1.08,0.59,3.37,1.43,4.56,1.74l0.87,0.17c0.31,0.06,0.62,0.02,0.9-0.12
			c0.34-0.17,0.75-0.38,0.75-0.38c1.39-1.11,1.34-3.37,1.25-5c-0.14-0.8-0.86-9.1-0.86-9.1c-0.03-1.56-0.14-5.93,0.08-7.42
			c0.28-0.26,0.91-0.68,1.27-0.81c0.75-0.15,1.24,0.06,1.52,0.79c0.11,0.66-0.67,3.26,0.65,2.82c1.05-0.93,2.85-1.8,4.2-2.16
			c0.72-0.59,2.4-1.57,1.56-2.64c-1.49-1.26-3.66-2.67-5.68-2.33c-0.44,0.08-1.34,0.49-1.54-0.15c1.16-1.6,3.55-3.02,5.05-4.28
			c0.31-0.26,0.8-0.79,0.73-1.24c-0.06-1.04-1.59-1.89-2.28-2.54c-0.22-0.11-0.92-0.45-1.01-0.7c1.43-1.96,3.77-3.73,5.9-4.88
			C440.7,51.3,443.4,50.59,443.19,48.17z M426.84,55.68c-0.43-0.03-1.27-0.21-1.67-0.37c-0.44-0.52-0.71-1.16-0.36-1.8
			c0.24-0.28,0.81-1.26,1.28-1.18c0.61-0.31,0.96,0.55,1.19,0.97C427.39,54.09,427.71,55.17,426.84,55.68z M353.42,74.82
			c-5.49,0.99-8.35-1.04-12.31-4.43c0.15-1.28,1.86-3.53,2.45-4.71c0,0,0.79-0.83,0.79-0.83c0.07-0.19,0.2-1.19,0.41-1.31
			c-0.42-1.25-2-1.92-3.16-2.3c-0.44-0.07-0.99,0.23-1.42,0.21c-0.19-1.38,0.74-3.53,1.39-4.71c0.74-1.34,1.39-3.7,2.79-4.5
			c0.84-0.36,1.98-1.28,2.73-1.8c0.31-0.3,0.41-0.67,0.29-1.1c0,0-1.07-1.35-1.07-1.35c-0.23-0.04-0.72-0.19-0.91-0.32
			c-0.26-1.72-2.46-2.67-3.82-3.41l-0.77-0.16l-0.72,0.4c-0.16,0.58-0.1,1.98-0.05,2.59c0,0-0.44,1.84-0.44,1.84l-0.52,2.02
			l-1.08,1.05c-2.81,1.58-5.68,4.11-8.61,5.53c-0.06,1.29,2.65,1.57,3.64,1.64c1.41-0.37,3.04-2.43,4.28-3.07
			c0.09,1.34-1.02,3.68-1.3,5.06c-0.17,0.38-0.8,1.49-0.64,1.93c0.05,0.34,0.27,0.93,0.53,1.16c0.2,0.33,0.65,0.83,1.08,0.83
			c0.58-0.2,1.27-0.9,1.8-1.2l0.48,0.18c0.35,0.99-1.23,3.09-1.61,3.96c-0.61-0.19-1.42-1.31-2.11-1.42
			c-0.76-0.3-1.95-1.21-2.76-0.61c-0.23,0.98,1.06,2.28,1.53,3.04c0.29,0.51,0.94,1.52,1.28,2c0.52,0.48-0.41,1.57-0.55,2.08
			c-0.79,1-2.89,3.89-4,4.54c-1.02,0.66-3.3,2.39-4.19,0.76c0-7.38,0.2-15.87,2.21-22.97c0.68-0.69,2.18-1.99,2.95-2.6
			c0,0,1.05-0.88,1.05-0.88l0.04-0.78c-0.44-0.35-1.13-2.21-1.84-1.05l-0.29-0.18c1.04-1.2-2.85-3.77-3.77-4.25
			c-0.42-0.03-1.12,0.63-1.4,0.88c0,0-0.13,1.42-0.13,1.42c-0.08,1.13-0.4,3.45-0.69,4.54l-3.66,2.48
			c-0.55-0.02-1.45,0.26-1.84,0.65c-0.1,0.31,0.86,1.53,1.01,1.78c0.41,0.41,1.41,1.59,2.08,1.5c0,0,0.55-0.14,0.55-0.14
			c0.22-0.3,0.52-0.86,0.99-0.7c-0.24,0.75-0.49,2.68-0.52,3.49c-0.4,1.89-2.77,3.6-3.92,5.05c-1.07,1.3-3.29,3.87-4.41,5.13
			c-0.32,0.4-1.08,1.01-1.62,1.07c-2.46,1.65-2.04,1.64-0.11,3.54c0.4,0.19,1.21,0.41,1.73,0.5c0.12,0.02,0.23,0,0.33-0.06
			c1.1-0.67,2.5-2.06,3.41-3.12c0.2-0.24,0.36-0.5,0.47-0.79c0.28-0.77,0.86-1.84,1.26-2.37c0.66-1.03,1.56-2.94,2.32-3.88
			l0.31,0.09c-0.1,0.67-0.44,3.43-0.53,4.17c-0.24,1.02,0.48,7.86-0.89,8.31c-0.49,0.04-1.51,0.05-2,0.04
			c-1.05-0.25-1.94-0.63-2.85,0.25l0.04,0.43c1.88,0.99,4.05,1.79,5.79,3.04c0,0,0.73,0.55,0.73,0.55c0.18,0.43,0.37,0.6,0.85,0.6
			c1.25-0.48,2.34-1.9,2.35-3.25l0.26-0.09c1.6,2.04,1.9,1.69,3.95,0.51c2.4-1.76,5.46-4.56,7.22-6.92
			c1.12,0.71,2.43,2.61,3.28,3.61c0.42,0.6,1.05,1.78,1.93,1.74c2.22,0.14,4.79-1.13,6.77-2.01c1.07-0.68,3.94-1.38,4.44-2.6
			C354.38,74.59,353.93,74.74,353.42,74.82z M301.04,57.56c-0.01-0.53-0.1-1.09-0.51-1.17c-0.49,0.08-0.36,1.65-0.42,1.96
			c-0.47,1.33-1.11,3.1-2.37,3.89c-0.27-0.08-0.28-0.63-0.29-0.83c0.02-1.79,0.49-4.24,0.67-6.09c0.02-0.18,0.05-0.36,0.1-0.53
			c1.42-4.92,1.32-8.38-4.59-9.52c-1.69,1.15-0.95,3.58-0.59,5.23c0.26,0.91,0.35,3.01,0.33,3.97c0.24,3.24-0.21,7.58-0.03,10.84
			c-0.04,0.32-0.08,1.31-0.42,1.49c-0.43,0.25-2.36,1.68-2.8,1.82l-0.2-0.12c-0.08-0.55,0.63-1.24,0.81-1.74c0,0,0.06-1.3,0.06-1.3
			c0.04-1.81-2.25-3.16-1.93-4.98c0.69-1.66,1.66-3.73,1.22-5.57c-0.51-1.49-5.6-6.45-5.73-2.7c0.28,2.1,2.02,4.22,3.26,5.86
			c0.45,1.27-0.58,2.8-0.71,4.04c0.35,1.12,0.61,2.7,0.91,3.83c0.42,1.01,0.32,2.43-0.04,3.45c-0.41,0.9-1.59,2.43-1.51,3.45
			c0.64,1.3,2.31,1.03,3.41,0.56c0,0,1.93-1.48,1.93-1.48c0.19-0.16,1.21-1.36,1.51-1.23c0.05,5-0.1,11.88-0.09,16.91
			c0.06,1.23-0.38,2.41,1.36,2.41c0.79-0.2,1.71-1.41,1.91-2.13c1.11-4.06,0.8-10.83,0.91-12.12c-0.03-1.98,0.17-4.96,0.12-6.96
			c0.04-1.6,0.43-2.09,1.72-2.97c0.64-0.76,3.99-3.1,3.82-4.26c-0.24-0.71-0.76-1.58-1.27-2.32
			C301.25,58.73,301.05,58.16,301.04,57.56z"/>
	</g>
</g>
</svg>
