<?xml version="1.0" encoding="utf-8"?>
<!-- Generator: Adobe Illustrator 25.2.1, SVG Export Plug-In . SVG Version: 6.00 Build 0)  -->
<svg version="1.1" id="Layer_1" xmlns="http://www.w3.org/2000/svg" xmlns:xlink="http://www.w3.org/1999/xlink" x="0px" y="0px"
	 viewBox="0 0 360 360" style="enable-background:new 0 0 360 360;" xml:space="preserve">
<style type="text/css">
	.st0{fill:#FFD600;}
	.st1{fill:#000001;}
</style>
<path class="st0" d="M0,360V0h360v360H0z"/>
<path class="st1" d="M235.4,269.5c6.9,11.2,14.4,22,30.4,22c13.4,0,20.4-6.6,20.4-15.8c0-11-7.3-14.9-22-21.3l-8.1-3.4
	c-23.3-9.9-38.8-22.3-38.8-48.4c0-24.1,18.4-42.4,47.3-42.4c20.5,0,35.3,7.1,45.9,25.7l-25.1,16.1c-5.5-9.9-11.5-13.8-20.8-13.8
	c-9.5,0-15.4,6-15.4,13.8c0,9.6,6,13.5,19.8,19.5l8.1,3.4c27.5,11.7,42.9,23.6,42.9,50.5c0,28.9-22.8,44.8-53.5,44.8
	c-30,0-47-15.1-56.5-33.7L235.4,269.5z M119.5,270.3c5.1,9.1,12.7,16,23.8,16c10.6,0,16.7-4.2,16.7-20.4V160h33.3v111
	c0,33.7-19.5,49-48.1,49c-25.8,0-44.4-17.5-51.9-33.7L119.5,270.3z"/>
</svg>
