<?xml version="1.0" encoding="utf-8"?>
<!-- Generator: Adobe Illustrator 25.2.1, SVG Export Plug-In . SVG Version: 6.00 Build 0)  -->
<svg version="1.1" id="Layer_1" xmlns="http://www.w3.org/2000/svg" xmlns:xlink="http://www.w3.org/1999/xlink" x="0px" y="0px"
	 viewBox="0 0 480 190" style="enable-background:new 0 0 480 190;" xml:space="preserve">
<style type="text/css">
	.st0{fill:#388E3C;}
	.st1{fill:#37474F;}
	.st2{fill:#2E7D32;}
	.st3{fill:#4CAF50;}
</style>
<path class="st0" d="M172,71.2L123,98.4c-1.8,1-3,2.9-3,4.9v54.3c0,2,1.1,3.9,3,4.9l49.1,27.2c1.8,1,4.1,1,5.9,0l49.1-27.2
	c1.8-1,2.9-2.9,2.9-4.9v-54.3c0-2-1.1-3.9-3-4.9L178,71.2c-0.9-0.5-1.9-0.8-3-0.8C174,70.5,172.9,70.7,172,71.2 M424.5,120.1
	l-8.2,4.5c-0.3,0.2-0.5,0.5-0.5,0.8v9.1c0,0.3,0.2,0.7,0.5,0.8l8.2,4.5c0.3,0.2,0.7,0.2,1,0l8.2-4.5c0.3-0.2,0.5-0.5,0.5-0.8v-9.1
	c0-0.3-0.2-0.7-0.5-0.8l-8.2-4.5c-0.1-0.1-0.3-0.1-0.5-0.1S424.7,120,424.5,120.1"/>
<path class="st1" d="M357.5,13.6L333.6,0.3c-0.8-0.4-1.7-0.4-2.4,0c-0.7,0.4-1.2,1.2-1.2,2.1l0,80.5l-22-12.2c-0.9-0.5-2-0.8-3-0.8
	s-2,0.2-3,0.8h0L253,97.9c-1.8,1-3,2.9-3,4.9v54.3c0,2,1.1,3.9,3,4.9l49.1,27.2c1.8,1,4.1,1,5.9,0l49.1-27.2c1.8-1,2.9-2.9,2.9-4.9
	V17.9C360,16.1,359,14.5,357.5,13.6z M328.7,144.6l-22.3,12.4c-0.8,0.5-1.9,0.5-2.7,0l-22.3-12.4c-0.9-0.5-1.4-1.3-1.4-2.2v-24.7
	c0-0.9,0.5-1.8,1.4-2.2l22.3-12.3h0c0.4-0.2,0.9-0.3,1.4-0.3c0.5,0,0.9,0.1,1.4,0.3l22.3,12.3c0.8,0.5,1.3,1.3,1.3,2.2v24.7
	C330,143.3,329.5,144.1,328.7,144.6z"/>
<path class="st2" d="M172,71.2l-52,86.4c0,2,1.1,3.9,3,4.9l49.1,27.2c1.8,1,4.1,1,5.9,0l52-86.4c0-2-1.1-3.9-3-4.9L178,71.2
	c-0.9-0.5-1.9-0.8-3-0.8C174,70.5,172.9,70.7,172,71.2"/>
<path class="st3" d="M172,71.2L123,98.4c-1.8,1-3,2.9-3,4.9l52,86.4c1.8,1,4.1,1,5.9,0l49.1-27.2c1.8-1,3-2.9,3-4.9l-52-86.4
	c-0.9-0.5-1.9-0.8-3-0.8C174,70.5,172.9,70.7,172,71.2"/>
<path class="st1" d="M477,97.9L428,70.8c-0.9-0.5-1.9-0.8-3-0.8s-2.1,0.2-3,0.8h0L373,97.9c-1.8,1-3,2.9-3,5V157c0,2.1,1.1,4,3,5
	l49.1,27.2c1.8,1,4.1,1,5.9,0l22.6-12.5c2.1-1.1,2.1-4.1,0-5.3l-49.2-26.9c-0.8-0.5-1.4-1.3-1.4-2.3v-24.7c0-0.9,0.5-1.8,1.3-2.2
	l22.4-12.4h0c0.4-0.2,0.9-0.3,1.3-0.3c0.5,0,0.9,0.1,1.4,0.3l22.4,12.4c0.8,0.4,1.3,1.3,1.3,2.2v20.1c0,0.9,0.5,1.7,1.2,2.1
	c0.8,0.4,1.7,0.4,2.4,0l24-13.9c1.5-0.9,2.4-2.5,2.4-4.2V103C480,100.8,478.9,98.9,477,97.9z M107,97.9L58,70.8C57,70.2,56,70,55,70
	s-2,0.2-3,0.8h0L3,97.9c-1.8,1-3,2.9-3,5v74.6c0,0.9,0.5,1.7,1.2,2.1c0.8,0.4,1.7,0.4,2.4,0l24-13.9c1.5-0.9,2.4-2.5,2.4-4.2v-43.9
	c0-0.9,0.5-1.8,1.3-2.2l22.3-12.4l0,0c0.4-0.2,0.9-0.3,1.4-0.3c0.5,0,0.9,0.1,1.4,0.3l22.3,12.4c0.8,0.4,1.3,1.3,1.3,2.2v43.9
	c0,1.7,0.9,3.3,2.4,4.2l24,13.9c0.7,0.4,1.7,0.4,2.4,0c0.7-0.4,1.2-1.2,1.2-2.1v-74.6C110,100.8,108.9,98.9,107,97.9z"/>
</svg>
